<mxfile host="app.diagrams.net" agent="Mozilla/5.0 (Windows NT 10.0; Win64; x64) AppleWebKit/537.36 (KHTML, like Gecko) Chrome/135.0.0.0 Safari/537.36" version="26.2.10" pages="3">
  <diagram name="Seleção" id="JD_0HPDNPtcNdxHgfvFU">
    <mxGraphModel dx="1182" dy="444" grid="1" gridSize="10" guides="1" tooltips="1" connect="1" arrows="1" fold="1" page="1" pageScale="1" pageWidth="827" pageHeight="1169" math="0" shadow="0">
      <root>
        <mxCell id="0" />
        <mxCell id="1" parent="0" />
        <mxCell id="b2TfS9Y4KB12jQZhkRDV-36" style="edgeStyle=orthogonalEdgeStyle;rounded=0;orthogonalLoop=1;jettySize=auto;html=1;endArrow=none;startFill=1;startArrow=classic;" edge="1" parent="1">
          <mxGeometry relative="1" as="geometry">
            <mxPoint x="400" y="60" as="targetPoint" />
            <mxPoint x="400" y="80" as="sourcePoint" />
            <Array as="points">
              <mxPoint x="400" y="80" />
            </Array>
          </mxGeometry>
        </mxCell>
        <mxCell id="b2TfS9Y4KB12jQZhkRDV-1" value="" style="shape=table;startSize=0;container=1;collapsible=0;childLayout=tableLayout;fontSize=16;" vertex="1" parent="1">
          <mxGeometry x="160" y="80" width="413" height="40" as="geometry" />
        </mxCell>
        <mxCell id="b2TfS9Y4KB12jQZhkRDV-2" value="" style="shape=tableRow;horizontal=0;startSize=0;swimlaneHead=0;swimlaneBody=0;strokeColor=inherit;top=0;left=0;bottom=0;right=0;collapsible=0;dropTarget=0;fillColor=none;points=[[0,0.5],[1,0.5]];portConstraint=eastwest;fontSize=16;" vertex="1" parent="b2TfS9Y4KB12jQZhkRDV-1">
          <mxGeometry width="413" height="40" as="geometry" />
        </mxCell>
        <mxCell id="b2TfS9Y4KB12jQZhkRDV-3" value="22" style="shape=partialRectangle;html=1;whiteSpace=wrap;connectable=0;strokeColor=inherit;overflow=hidden;fillColor=none;top=0;left=0;bottom=0;right=0;pointerEvents=1;fontSize=16;" vertex="1" parent="b2TfS9Y4KB12jQZhkRDV-2">
          <mxGeometry width="69" height="40" as="geometry">
            <mxRectangle width="69" height="40" as="alternateBounds" />
          </mxGeometry>
        </mxCell>
        <mxCell id="b2TfS9Y4KB12jQZhkRDV-4" value="35" style="shape=partialRectangle;html=1;whiteSpace=wrap;connectable=0;strokeColor=inherit;overflow=hidden;fillColor=none;top=0;left=0;bottom=0;right=0;pointerEvents=1;fontSize=16;" vertex="1" parent="b2TfS9Y4KB12jQZhkRDV-2">
          <mxGeometry x="69" width="68" height="40" as="geometry">
            <mxRectangle width="68" height="40" as="alternateBounds" />
          </mxGeometry>
        </mxCell>
        <mxCell id="b2TfS9Y4KB12jQZhkRDV-5" value="2" style="shape=partialRectangle;html=1;whiteSpace=wrap;connectable=0;strokeColor=inherit;overflow=hidden;fillColor=none;top=0;left=0;bottom=0;right=0;pointerEvents=1;fontSize=16;" vertex="1" parent="b2TfS9Y4KB12jQZhkRDV-2">
          <mxGeometry x="137" width="69" height="40" as="geometry">
            <mxRectangle width="69" height="40" as="alternateBounds" />
          </mxGeometry>
        </mxCell>
        <mxCell id="b2TfS9Y4KB12jQZhkRDV-21" value="1" style="shape=partialRectangle;html=1;whiteSpace=wrap;connectable=0;strokeColor=inherit;overflow=hidden;fillColor=none;top=0;left=0;bottom=0;right=0;pointerEvents=1;fontSize=16;" vertex="1" parent="b2TfS9Y4KB12jQZhkRDV-2">
          <mxGeometry x="206" width="69" height="40" as="geometry">
            <mxRectangle width="69" height="40" as="alternateBounds" />
          </mxGeometry>
        </mxCell>
        <mxCell id="b2TfS9Y4KB12jQZhkRDV-22" value="13" style="shape=partialRectangle;html=1;whiteSpace=wrap;connectable=0;strokeColor=inherit;overflow=hidden;fillColor=none;top=0;left=0;bottom=0;right=0;pointerEvents=1;fontSize=16;" vertex="1" parent="b2TfS9Y4KB12jQZhkRDV-2">
          <mxGeometry x="275" width="69" height="40" as="geometry">
            <mxRectangle width="69" height="40" as="alternateBounds" />
          </mxGeometry>
        </mxCell>
        <mxCell id="b2TfS9Y4KB12jQZhkRDV-23" value="7" style="shape=partialRectangle;html=1;whiteSpace=wrap;connectable=0;strokeColor=inherit;overflow=hidden;fillColor=none;top=0;left=0;bottom=0;right=0;pointerEvents=1;fontSize=16;" vertex="1" parent="b2TfS9Y4KB12jQZhkRDV-2">
          <mxGeometry x="344" width="69" height="40" as="geometry">
            <mxRectangle width="69" height="40" as="alternateBounds" />
          </mxGeometry>
        </mxCell>
        <mxCell id="b2TfS9Y4KB12jQZhkRDV-34" value="" style="endArrow=classic;html=1;rounded=0;entryX=0.08;entryY=-0.05;entryDx=0;entryDy=0;entryPerimeter=0;" edge="1" parent="b2TfS9Y4KB12jQZhkRDV-1" target="b2TfS9Y4KB12jQZhkRDV-2">
          <mxGeometry width="50" height="50" relative="1" as="geometry">
            <mxPoint x="240" y="-20" as="sourcePoint" />
            <mxPoint x="30" y="-10" as="targetPoint" />
            <Array as="points">
              <mxPoint x="33" y="-20" />
            </Array>
          </mxGeometry>
        </mxCell>
        <mxCell id="b2TfS9Y4KB12jQZhkRDV-24" value="" style="shape=table;startSize=0;container=1;collapsible=0;childLayout=tableLayout;fontSize=16;" vertex="1" parent="1">
          <mxGeometry x="160" y="150" width="413" height="40" as="geometry" />
        </mxCell>
        <mxCell id="b2TfS9Y4KB12jQZhkRDV-25" value="" style="shape=tableRow;horizontal=0;startSize=0;swimlaneHead=0;swimlaneBody=0;strokeColor=inherit;top=0;left=0;bottom=0;right=0;collapsible=0;dropTarget=0;fillColor=none;points=[[0,0.5],[1,0.5]];portConstraint=eastwest;fontSize=16;" vertex="1" parent="b2TfS9Y4KB12jQZhkRDV-24">
          <mxGeometry width="413" height="40" as="geometry" />
        </mxCell>
        <mxCell id="b2TfS9Y4KB12jQZhkRDV-26" value="1" style="shape=partialRectangle;html=1;whiteSpace=wrap;connectable=0;strokeColor=inherit;overflow=hidden;fillColor=none;top=0;left=0;bottom=0;right=0;pointerEvents=1;fontSize=16;" vertex="1" parent="b2TfS9Y4KB12jQZhkRDV-25">
          <mxGeometry width="69" height="40" as="geometry">
            <mxRectangle width="69" height="40" as="alternateBounds" />
          </mxGeometry>
        </mxCell>
        <mxCell id="b2TfS9Y4KB12jQZhkRDV-27" value="35" style="shape=partialRectangle;html=1;whiteSpace=wrap;connectable=0;strokeColor=inherit;overflow=hidden;fillColor=none;top=0;left=0;bottom=0;right=0;pointerEvents=1;fontSize=16;" vertex="1" parent="b2TfS9Y4KB12jQZhkRDV-25">
          <mxGeometry x="69" width="68" height="40" as="geometry">
            <mxRectangle width="68" height="40" as="alternateBounds" />
          </mxGeometry>
        </mxCell>
        <mxCell id="b2TfS9Y4KB12jQZhkRDV-28" value="2" style="shape=partialRectangle;html=1;whiteSpace=wrap;connectable=0;strokeColor=inherit;overflow=hidden;fillColor=none;top=0;left=0;bottom=0;right=0;pointerEvents=1;fontSize=16;" vertex="1" parent="b2TfS9Y4KB12jQZhkRDV-25">
          <mxGeometry x="137" width="69" height="40" as="geometry">
            <mxRectangle width="69" height="40" as="alternateBounds" />
          </mxGeometry>
        </mxCell>
        <mxCell id="b2TfS9Y4KB12jQZhkRDV-29" value="22" style="shape=partialRectangle;html=1;whiteSpace=wrap;connectable=0;strokeColor=inherit;overflow=hidden;fillColor=none;top=0;left=0;bottom=0;right=0;pointerEvents=1;fontSize=16;" vertex="1" parent="b2TfS9Y4KB12jQZhkRDV-25">
          <mxGeometry x="206" width="69" height="40" as="geometry">
            <mxRectangle width="69" height="40" as="alternateBounds" />
          </mxGeometry>
        </mxCell>
        <mxCell id="b2TfS9Y4KB12jQZhkRDV-30" value="13" style="shape=partialRectangle;html=1;whiteSpace=wrap;connectable=0;strokeColor=inherit;overflow=hidden;fillColor=none;top=0;left=0;bottom=0;right=0;pointerEvents=1;fontSize=16;" vertex="1" parent="b2TfS9Y4KB12jQZhkRDV-25">
          <mxGeometry x="275" width="69" height="40" as="geometry">
            <mxRectangle width="69" height="40" as="alternateBounds" />
          </mxGeometry>
        </mxCell>
        <mxCell id="b2TfS9Y4KB12jQZhkRDV-31" value="7" style="shape=partialRectangle;html=1;whiteSpace=wrap;connectable=0;strokeColor=inherit;overflow=hidden;fillColor=none;top=0;left=0;bottom=0;right=0;pointerEvents=1;fontSize=16;" vertex="1" parent="b2TfS9Y4KB12jQZhkRDV-25">
          <mxGeometry x="344" width="69" height="40" as="geometry">
            <mxRectangle width="69" height="40" as="alternateBounds" />
          </mxGeometry>
        </mxCell>
        <mxCell id="b2TfS9Y4KB12jQZhkRDV-32" value="SELEÇÃO" style="text;html=1;align=center;verticalAlign=middle;resizable=0;points=[];autosize=1;strokeColor=none;fillColor=none;" vertex="1" parent="1">
          <mxGeometry x="80" y="30" width="80" height="30" as="geometry" />
        </mxCell>
        <mxCell id="b2TfS9Y4KB12jQZhkRDV-33" value="i = 0" style="text;html=1;align=center;verticalAlign=middle;resizable=0;points=[];autosize=1;strokeColor=none;fillColor=none;" vertex="1" parent="1">
          <mxGeometry x="40" y="80" width="50" height="30" as="geometry" />
        </mxCell>
        <mxCell id="b2TfS9Y4KB12jQZhkRDV-37" value="i = 1" style="text;html=1;align=center;verticalAlign=middle;resizable=0;points=[];autosize=1;strokeColor=none;fillColor=none;" vertex="1" parent="1">
          <mxGeometry x="40" y="150" width="50" height="30" as="geometry" />
        </mxCell>
        <mxCell id="b2TfS9Y4KB12jQZhkRDV-40" style="edgeStyle=orthogonalEdgeStyle;rounded=0;orthogonalLoop=1;jettySize=auto;html=1;endArrow=none;startFill=1;startArrow=classic;" edge="1" parent="1">
          <mxGeometry relative="1" as="geometry">
            <mxPoint x="340" y="130" as="targetPoint" />
            <mxPoint x="340" y="150" as="sourcePoint" />
            <Array as="points">
              <mxPoint x="340" y="150" />
            </Array>
          </mxGeometry>
        </mxCell>
        <mxCell id="b2TfS9Y4KB12jQZhkRDV-41" value="" style="shape=table;startSize=0;container=1;collapsible=0;childLayout=tableLayout;fontSize=16;" vertex="1" parent="1">
          <mxGeometry x="160" y="220" width="413" height="40" as="geometry" />
        </mxCell>
        <mxCell id="b2TfS9Y4KB12jQZhkRDV-42" value="" style="shape=tableRow;horizontal=0;startSize=0;swimlaneHead=0;swimlaneBody=0;strokeColor=inherit;top=0;left=0;bottom=0;right=0;collapsible=0;dropTarget=0;fillColor=none;points=[[0,0.5],[1,0.5]];portConstraint=eastwest;fontSize=16;" vertex="1" parent="b2TfS9Y4KB12jQZhkRDV-41">
          <mxGeometry width="413" height="40" as="geometry" />
        </mxCell>
        <mxCell id="b2TfS9Y4KB12jQZhkRDV-43" value="1" style="shape=partialRectangle;html=1;whiteSpace=wrap;connectable=0;strokeColor=inherit;overflow=hidden;fillColor=none;top=0;left=0;bottom=0;right=0;pointerEvents=1;fontSize=16;" vertex="1" parent="b2TfS9Y4KB12jQZhkRDV-42">
          <mxGeometry width="69" height="40" as="geometry">
            <mxRectangle width="69" height="40" as="alternateBounds" />
          </mxGeometry>
        </mxCell>
        <mxCell id="b2TfS9Y4KB12jQZhkRDV-44" value="2" style="shape=partialRectangle;html=1;whiteSpace=wrap;connectable=0;strokeColor=inherit;overflow=hidden;fillColor=none;top=0;left=0;bottom=0;right=0;pointerEvents=1;fontSize=16;" vertex="1" parent="b2TfS9Y4KB12jQZhkRDV-42">
          <mxGeometry x="69" width="68" height="40" as="geometry">
            <mxRectangle width="68" height="40" as="alternateBounds" />
          </mxGeometry>
        </mxCell>
        <mxCell id="b2TfS9Y4KB12jQZhkRDV-45" value="35" style="shape=partialRectangle;html=1;whiteSpace=wrap;connectable=0;strokeColor=inherit;overflow=hidden;fillColor=none;top=0;left=0;bottom=0;right=0;pointerEvents=1;fontSize=16;" vertex="1" parent="b2TfS9Y4KB12jQZhkRDV-42">
          <mxGeometry x="137" width="69" height="40" as="geometry">
            <mxRectangle width="69" height="40" as="alternateBounds" />
          </mxGeometry>
        </mxCell>
        <mxCell id="b2TfS9Y4KB12jQZhkRDV-46" value="22" style="shape=partialRectangle;html=1;whiteSpace=wrap;connectable=0;strokeColor=inherit;overflow=hidden;fillColor=none;top=0;left=0;bottom=0;right=0;pointerEvents=1;fontSize=16;" vertex="1" parent="b2TfS9Y4KB12jQZhkRDV-42">
          <mxGeometry x="206" width="69" height="40" as="geometry">
            <mxRectangle width="69" height="40" as="alternateBounds" />
          </mxGeometry>
        </mxCell>
        <mxCell id="b2TfS9Y4KB12jQZhkRDV-47" value="13" style="shape=partialRectangle;html=1;whiteSpace=wrap;connectable=0;strokeColor=inherit;overflow=hidden;fillColor=none;top=0;left=0;bottom=0;right=0;pointerEvents=1;fontSize=16;" vertex="1" parent="b2TfS9Y4KB12jQZhkRDV-42">
          <mxGeometry x="275" width="69" height="40" as="geometry">
            <mxRectangle width="69" height="40" as="alternateBounds" />
          </mxGeometry>
        </mxCell>
        <mxCell id="b2TfS9Y4KB12jQZhkRDV-48" value="7" style="shape=partialRectangle;html=1;whiteSpace=wrap;connectable=0;strokeColor=inherit;overflow=hidden;fillColor=none;top=0;left=0;bottom=0;right=0;pointerEvents=1;fontSize=16;" vertex="1" parent="b2TfS9Y4KB12jQZhkRDV-42">
          <mxGeometry x="344" width="69" height="40" as="geometry">
            <mxRectangle width="69" height="40" as="alternateBounds" />
          </mxGeometry>
        </mxCell>
        <mxCell id="b2TfS9Y4KB12jQZhkRDV-49" value="i = 2" style="text;html=1;align=center;verticalAlign=middle;resizable=0;points=[];autosize=1;strokeColor=none;fillColor=none;" vertex="1" parent="1">
          <mxGeometry x="40" y="220" width="50" height="30" as="geometry" />
        </mxCell>
        <mxCell id="b2TfS9Y4KB12jQZhkRDV-50" value="" style="endArrow=classic;html=1;rounded=0;entryX=0.242;entryY=0;entryDx=0;entryDy=0;entryPerimeter=0;" edge="1" parent="1">
          <mxGeometry width="50" height="50" relative="1" as="geometry">
            <mxPoint x="540" y="200" as="sourcePoint" />
            <mxPoint x="334" y="220" as="targetPoint" />
            <Array as="points">
              <mxPoint x="334" y="200" />
            </Array>
          </mxGeometry>
        </mxCell>
        <mxCell id="b2TfS9Y4KB12jQZhkRDV-51" style="edgeStyle=orthogonalEdgeStyle;rounded=0;orthogonalLoop=1;jettySize=auto;html=1;endArrow=none;startFill=1;startArrow=classic;" edge="1" parent="1">
          <mxGeometry relative="1" as="geometry">
            <mxPoint x="540" y="200" as="targetPoint" />
            <mxPoint x="540" y="220" as="sourcePoint" />
            <Array as="points">
              <mxPoint x="540" y="220" />
            </Array>
          </mxGeometry>
        </mxCell>
        <mxCell id="b2TfS9Y4KB12jQZhkRDV-53" value="" style="shape=table;startSize=0;container=1;collapsible=0;childLayout=tableLayout;fontSize=16;" vertex="1" parent="1">
          <mxGeometry x="160" y="290" width="413" height="40" as="geometry" />
        </mxCell>
        <mxCell id="b2TfS9Y4KB12jQZhkRDV-54" value="" style="shape=tableRow;horizontal=0;startSize=0;swimlaneHead=0;swimlaneBody=0;strokeColor=inherit;top=0;left=0;bottom=0;right=0;collapsible=0;dropTarget=0;fillColor=none;points=[[0,0.5],[1,0.5]];portConstraint=eastwest;fontSize=16;" vertex="1" parent="b2TfS9Y4KB12jQZhkRDV-53">
          <mxGeometry width="413" height="40" as="geometry" />
        </mxCell>
        <mxCell id="b2TfS9Y4KB12jQZhkRDV-55" value="1" style="shape=partialRectangle;html=1;whiteSpace=wrap;connectable=0;strokeColor=inherit;overflow=hidden;fillColor=none;top=0;left=0;bottom=0;right=0;pointerEvents=1;fontSize=16;" vertex="1" parent="b2TfS9Y4KB12jQZhkRDV-54">
          <mxGeometry width="69" height="40" as="geometry">
            <mxRectangle width="69" height="40" as="alternateBounds" />
          </mxGeometry>
        </mxCell>
        <mxCell id="b2TfS9Y4KB12jQZhkRDV-56" value="2" style="shape=partialRectangle;html=1;whiteSpace=wrap;connectable=0;strokeColor=inherit;overflow=hidden;fillColor=none;top=0;left=0;bottom=0;right=0;pointerEvents=1;fontSize=16;" vertex="1" parent="b2TfS9Y4KB12jQZhkRDV-54">
          <mxGeometry x="69" width="68" height="40" as="geometry">
            <mxRectangle width="68" height="40" as="alternateBounds" />
          </mxGeometry>
        </mxCell>
        <mxCell id="b2TfS9Y4KB12jQZhkRDV-57" value="7" style="shape=partialRectangle;html=1;whiteSpace=wrap;connectable=0;strokeColor=inherit;overflow=hidden;fillColor=none;top=0;left=0;bottom=0;right=0;pointerEvents=1;fontSize=16;" vertex="1" parent="b2TfS9Y4KB12jQZhkRDV-54">
          <mxGeometry x="137" width="69" height="40" as="geometry">
            <mxRectangle width="69" height="40" as="alternateBounds" />
          </mxGeometry>
        </mxCell>
        <mxCell id="b2TfS9Y4KB12jQZhkRDV-58" value="22" style="shape=partialRectangle;html=1;whiteSpace=wrap;connectable=0;strokeColor=inherit;overflow=hidden;fillColor=none;top=0;left=0;bottom=0;right=0;pointerEvents=1;fontSize=16;" vertex="1" parent="b2TfS9Y4KB12jQZhkRDV-54">
          <mxGeometry x="206" width="69" height="40" as="geometry">
            <mxRectangle width="69" height="40" as="alternateBounds" />
          </mxGeometry>
        </mxCell>
        <mxCell id="b2TfS9Y4KB12jQZhkRDV-59" value="13" style="shape=partialRectangle;html=1;whiteSpace=wrap;connectable=0;strokeColor=inherit;overflow=hidden;fillColor=none;top=0;left=0;bottom=0;right=0;pointerEvents=1;fontSize=16;" vertex="1" parent="b2TfS9Y4KB12jQZhkRDV-54">
          <mxGeometry x="275" width="69" height="40" as="geometry">
            <mxRectangle width="69" height="40" as="alternateBounds" />
          </mxGeometry>
        </mxCell>
        <mxCell id="b2TfS9Y4KB12jQZhkRDV-60" value="35" style="shape=partialRectangle;html=1;whiteSpace=wrap;connectable=0;strokeColor=inherit;overflow=hidden;fillColor=none;top=0;left=0;bottom=0;right=0;pointerEvents=1;fontSize=16;" vertex="1" parent="b2TfS9Y4KB12jQZhkRDV-54">
          <mxGeometry x="344" width="69" height="40" as="geometry">
            <mxRectangle width="69" height="40" as="alternateBounds" />
          </mxGeometry>
        </mxCell>
        <mxCell id="b2TfS9Y4KB12jQZhkRDV-61" value="i = 3" style="text;html=1;align=center;verticalAlign=middle;resizable=0;points=[];autosize=1;strokeColor=none;fillColor=none;" vertex="1" parent="1">
          <mxGeometry x="40" y="290" width="50" height="30" as="geometry" />
        </mxCell>
        <mxCell id="b2TfS9Y4KB12jQZhkRDV-62" value="" style="endArrow=classic;html=1;rounded=0;entryX=0.242;entryY=0;entryDx=0;entryDy=0;entryPerimeter=0;" edge="1" parent="1">
          <mxGeometry width="50" height="50" relative="1" as="geometry">
            <mxPoint x="470" y="270" as="sourcePoint" />
            <mxPoint x="400" y="290" as="targetPoint" />
            <Array as="points">
              <mxPoint x="400" y="270" />
            </Array>
          </mxGeometry>
        </mxCell>
        <mxCell id="b2TfS9Y4KB12jQZhkRDV-63" style="edgeStyle=orthogonalEdgeStyle;rounded=0;orthogonalLoop=1;jettySize=auto;html=1;endArrow=none;startFill=1;startArrow=classic;" edge="1" parent="1">
          <mxGeometry relative="1" as="geometry">
            <mxPoint x="470" y="270" as="targetPoint" />
            <mxPoint x="470" y="290" as="sourcePoint" />
            <Array as="points">
              <mxPoint x="470" y="290" />
            </Array>
          </mxGeometry>
        </mxCell>
        <mxCell id="b2TfS9Y4KB12jQZhkRDV-64" value="" style="shape=table;startSize=0;container=1;collapsible=0;childLayout=tableLayout;fontSize=16;" vertex="1" parent="1">
          <mxGeometry x="160" y="360" width="413" height="40" as="geometry" />
        </mxCell>
        <mxCell id="b2TfS9Y4KB12jQZhkRDV-65" value="" style="shape=tableRow;horizontal=0;startSize=0;swimlaneHead=0;swimlaneBody=0;strokeColor=inherit;top=0;left=0;bottom=0;right=0;collapsible=0;dropTarget=0;fillColor=none;points=[[0,0.5],[1,0.5]];portConstraint=eastwest;fontSize=16;" vertex="1" parent="b2TfS9Y4KB12jQZhkRDV-64">
          <mxGeometry width="413" height="40" as="geometry" />
        </mxCell>
        <mxCell id="b2TfS9Y4KB12jQZhkRDV-66" value="1" style="shape=partialRectangle;html=1;whiteSpace=wrap;connectable=0;strokeColor=inherit;overflow=hidden;fillColor=none;top=0;left=0;bottom=0;right=0;pointerEvents=1;fontSize=16;" vertex="1" parent="b2TfS9Y4KB12jQZhkRDV-65">
          <mxGeometry width="69" height="40" as="geometry">
            <mxRectangle width="69" height="40" as="alternateBounds" />
          </mxGeometry>
        </mxCell>
        <mxCell id="b2TfS9Y4KB12jQZhkRDV-67" value="2" style="shape=partialRectangle;html=1;whiteSpace=wrap;connectable=0;strokeColor=inherit;overflow=hidden;fillColor=none;top=0;left=0;bottom=0;right=0;pointerEvents=1;fontSize=16;" vertex="1" parent="b2TfS9Y4KB12jQZhkRDV-65">
          <mxGeometry x="69" width="68" height="40" as="geometry">
            <mxRectangle width="68" height="40" as="alternateBounds" />
          </mxGeometry>
        </mxCell>
        <mxCell id="b2TfS9Y4KB12jQZhkRDV-68" value="7" style="shape=partialRectangle;html=1;whiteSpace=wrap;connectable=0;strokeColor=inherit;overflow=hidden;fillColor=none;top=0;left=0;bottom=0;right=0;pointerEvents=1;fontSize=16;" vertex="1" parent="b2TfS9Y4KB12jQZhkRDV-65">
          <mxGeometry x="137" width="69" height="40" as="geometry">
            <mxRectangle width="69" height="40" as="alternateBounds" />
          </mxGeometry>
        </mxCell>
        <mxCell id="b2TfS9Y4KB12jQZhkRDV-69" value="13" style="shape=partialRectangle;html=1;whiteSpace=wrap;connectable=0;strokeColor=inherit;overflow=hidden;fillColor=none;top=0;left=0;bottom=0;right=0;pointerEvents=1;fontSize=16;" vertex="1" parent="b2TfS9Y4KB12jQZhkRDV-65">
          <mxGeometry x="206" width="69" height="40" as="geometry">
            <mxRectangle width="69" height="40" as="alternateBounds" />
          </mxGeometry>
        </mxCell>
        <mxCell id="b2TfS9Y4KB12jQZhkRDV-70" value="22" style="shape=partialRectangle;html=1;whiteSpace=wrap;connectable=0;strokeColor=inherit;overflow=hidden;fillColor=none;top=0;left=0;bottom=0;right=0;pointerEvents=1;fontSize=16;" vertex="1" parent="b2TfS9Y4KB12jQZhkRDV-65">
          <mxGeometry x="275" width="69" height="40" as="geometry">
            <mxRectangle width="69" height="40" as="alternateBounds" />
          </mxGeometry>
        </mxCell>
        <mxCell id="b2TfS9Y4KB12jQZhkRDV-71" value="35" style="shape=partialRectangle;html=1;whiteSpace=wrap;connectable=0;strokeColor=inherit;overflow=hidden;fillColor=none;top=0;left=0;bottom=0;right=0;pointerEvents=1;fontSize=16;" vertex="1" parent="b2TfS9Y4KB12jQZhkRDV-65">
          <mxGeometry x="344" width="69" height="40" as="geometry">
            <mxRectangle width="69" height="40" as="alternateBounds" />
          </mxGeometry>
        </mxCell>
        <mxCell id="b2TfS9Y4KB12jQZhkRDV-72" value="i = 4" style="text;html=1;align=center;verticalAlign=middle;resizable=0;points=[];autosize=1;strokeColor=none;fillColor=none;" vertex="1" parent="1">
          <mxGeometry x="40" y="360" width="50" height="30" as="geometry" />
        </mxCell>
        <mxCell id="b2TfS9Y4KB12jQZhkRDV-74" value="TROCA" style="text;html=1;align=center;verticalAlign=middle;resizable=0;points=[];autosize=1;strokeColor=none;fillColor=none;" vertex="1" parent="1">
          <mxGeometry x="600" y="80" width="70" height="30" as="geometry" />
        </mxCell>
        <mxCell id="b2TfS9Y4KB12jQZhkRDV-75" value="TROCA" style="text;html=1;align=center;verticalAlign=middle;resizable=0;points=[];autosize=1;strokeColor=none;fillColor=none;" vertex="1" parent="1">
          <mxGeometry x="610" y="290" width="70" height="30" as="geometry" />
        </mxCell>
        <mxCell id="b2TfS9Y4KB12jQZhkRDV-76" value="TROCA" style="text;html=1;align=center;verticalAlign=middle;resizable=0;points=[];autosize=1;strokeColor=none;fillColor=none;" vertex="1" parent="1">
          <mxGeometry x="610" y="220" width="70" height="30" as="geometry" />
        </mxCell>
        <mxCell id="b2TfS9Y4KB12jQZhkRDV-77" value="TROCA" style="text;html=1;align=center;verticalAlign=middle;resizable=0;points=[];autosize=1;strokeColor=none;fillColor=none;" vertex="1" parent="1">
          <mxGeometry x="610" y="150" width="70" height="30" as="geometry" />
        </mxCell>
        <mxCell id="b2TfS9Y4KB12jQZhkRDV-78" value="OK" style="text;html=1;align=center;verticalAlign=middle;resizable=0;points=[];autosize=1;strokeColor=none;fillColor=none;" vertex="1" parent="1">
          <mxGeometry x="625" y="360" width="40" height="30" as="geometry" />
        </mxCell>
        <mxCell id="b2TfS9Y4KB12jQZhkRDV-79" value="" style="endArrow=classic;html=1;rounded=0;entryX=0.08;entryY=-0.05;entryDx=0;entryDy=0;entryPerimeter=0;" edge="1" parent="1">
          <mxGeometry width="50" height="50" relative="1" as="geometry">
            <mxPoint x="340" y="130" as="sourcePoint" />
            <mxPoint x="263" y="148" as="targetPoint" />
            <Array as="points">
              <mxPoint x="263" y="130" />
            </Array>
          </mxGeometry>
        </mxCell>
      </root>
    </mxGraphModel>
  </diagram>
  <diagram id="Ln86SAirFilrccVO8ktZ" name="Inserção">
    <mxGraphModel dx="2068" dy="777" grid="1" gridSize="10" guides="1" tooltips="1" connect="1" arrows="1" fold="1" page="1" pageScale="1" pageWidth="827" pageHeight="1169" math="0" shadow="0">
      <root>
        <mxCell id="0" />
        <mxCell id="1" parent="0" />
        <mxCell id="7pEk1WBJAmm8HnfHb9Ro-1" value="INSERÇÃO" style="text;html=1;align=center;verticalAlign=middle;resizable=0;points=[];autosize=1;strokeColor=none;fillColor=none;" vertex="1" parent="1">
          <mxGeometry x="75" y="40" width="90" height="30" as="geometry" />
        </mxCell>
        <mxCell id="7pEk1WBJAmm8HnfHb9Ro-2" value="" style="shape=table;startSize=0;container=1;collapsible=0;childLayout=tableLayout;fontSize=16;" vertex="1" parent="1">
          <mxGeometry x="160" y="100" width="413" height="40" as="geometry" />
        </mxCell>
        <mxCell id="7pEk1WBJAmm8HnfHb9Ro-3" value="" style="shape=tableRow;horizontal=0;startSize=0;swimlaneHead=0;swimlaneBody=0;strokeColor=inherit;top=0;left=0;bottom=0;right=0;collapsible=0;dropTarget=0;fillColor=none;points=[[0,0.5],[1,0.5]];portConstraint=eastwest;fontSize=16;" vertex="1" parent="7pEk1WBJAmm8HnfHb9Ro-2">
          <mxGeometry width="413" height="40" as="geometry" />
        </mxCell>
        <mxCell id="7pEk1WBJAmm8HnfHb9Ro-4" value="22" style="shape=partialRectangle;html=1;whiteSpace=wrap;connectable=0;strokeColor=inherit;overflow=hidden;fillColor=none;top=0;left=0;bottom=0;right=0;pointerEvents=1;fontSize=16;" vertex="1" parent="7pEk1WBJAmm8HnfHb9Ro-3">
          <mxGeometry width="69" height="40" as="geometry">
            <mxRectangle width="69" height="40" as="alternateBounds" />
          </mxGeometry>
        </mxCell>
        <mxCell id="7pEk1WBJAmm8HnfHb9Ro-5" value="35" style="shape=partialRectangle;html=1;whiteSpace=wrap;connectable=0;strokeColor=inherit;overflow=hidden;fillColor=none;top=0;left=0;bottom=0;right=0;pointerEvents=1;fontSize=16;" vertex="1" parent="7pEk1WBJAmm8HnfHb9Ro-3">
          <mxGeometry x="69" width="68" height="40" as="geometry">
            <mxRectangle width="68" height="40" as="alternateBounds" />
          </mxGeometry>
        </mxCell>
        <mxCell id="7pEk1WBJAmm8HnfHb9Ro-6" value="2" style="shape=partialRectangle;html=1;whiteSpace=wrap;connectable=0;strokeColor=inherit;overflow=hidden;fillColor=none;top=0;left=0;bottom=0;right=0;pointerEvents=1;fontSize=16;" vertex="1" parent="7pEk1WBJAmm8HnfHb9Ro-3">
          <mxGeometry x="137" width="69" height="40" as="geometry">
            <mxRectangle width="69" height="40" as="alternateBounds" />
          </mxGeometry>
        </mxCell>
        <mxCell id="7pEk1WBJAmm8HnfHb9Ro-7" value="1" style="shape=partialRectangle;html=1;whiteSpace=wrap;connectable=0;strokeColor=inherit;overflow=hidden;fillColor=none;top=0;left=0;bottom=0;right=0;pointerEvents=1;fontSize=16;" vertex="1" parent="7pEk1WBJAmm8HnfHb9Ro-3">
          <mxGeometry x="206" width="69" height="40" as="geometry">
            <mxRectangle width="69" height="40" as="alternateBounds" />
          </mxGeometry>
        </mxCell>
        <mxCell id="7pEk1WBJAmm8HnfHb9Ro-8" value="13" style="shape=partialRectangle;html=1;whiteSpace=wrap;connectable=0;strokeColor=inherit;overflow=hidden;fillColor=none;top=0;left=0;bottom=0;right=0;pointerEvents=1;fontSize=16;" vertex="1" parent="7pEk1WBJAmm8HnfHb9Ro-3">
          <mxGeometry x="275" width="69" height="40" as="geometry">
            <mxRectangle width="69" height="40" as="alternateBounds" />
          </mxGeometry>
        </mxCell>
        <mxCell id="7pEk1WBJAmm8HnfHb9Ro-9" value="7" style="shape=partialRectangle;html=1;whiteSpace=wrap;connectable=0;strokeColor=inherit;overflow=hidden;fillColor=none;top=0;left=0;bottom=0;right=0;pointerEvents=1;fontSize=16;" vertex="1" parent="7pEk1WBJAmm8HnfHb9Ro-3">
          <mxGeometry x="344" width="69" height="40" as="geometry">
            <mxRectangle width="69" height="40" as="alternateBounds" />
          </mxGeometry>
        </mxCell>
        <mxCell id="7pEk1WBJAmm8HnfHb9Ro-10" value="" style="shape=table;startSize=0;container=1;collapsible=0;childLayout=tableLayout;fontSize=16;" vertex="1" parent="1">
          <mxGeometry x="160" y="220" width="413" height="40" as="geometry" />
        </mxCell>
        <mxCell id="7pEk1WBJAmm8HnfHb9Ro-11" value="" style="shape=tableRow;horizontal=0;startSize=0;swimlaneHead=0;swimlaneBody=0;strokeColor=inherit;top=0;left=0;bottom=0;right=0;collapsible=0;dropTarget=0;fillColor=none;points=[[0,0.5],[1,0.5]];portConstraint=eastwest;fontSize=16;" vertex="1" parent="7pEk1WBJAmm8HnfHb9Ro-10">
          <mxGeometry width="413" height="40" as="geometry" />
        </mxCell>
        <mxCell id="7pEk1WBJAmm8HnfHb9Ro-12" value="22" style="shape=partialRectangle;html=1;whiteSpace=wrap;connectable=0;strokeColor=inherit;overflow=hidden;fillColor=none;top=0;left=0;bottom=0;right=0;pointerEvents=1;fontSize=16;" vertex="1" parent="7pEk1WBJAmm8HnfHb9Ro-11">
          <mxGeometry width="69" height="40" as="geometry">
            <mxRectangle width="69" height="40" as="alternateBounds" />
          </mxGeometry>
        </mxCell>
        <mxCell id="7pEk1WBJAmm8HnfHb9Ro-13" value="35" style="shape=partialRectangle;html=1;whiteSpace=wrap;connectable=0;strokeColor=inherit;overflow=hidden;fillColor=none;top=0;left=0;bottom=0;right=0;pointerEvents=1;fontSize=16;" vertex="1" parent="7pEk1WBJAmm8HnfHb9Ro-11">
          <mxGeometry x="69" width="68" height="40" as="geometry">
            <mxRectangle width="68" height="40" as="alternateBounds" />
          </mxGeometry>
        </mxCell>
        <mxCell id="7pEk1WBJAmm8HnfHb9Ro-14" value="2" style="shape=partialRectangle;html=1;whiteSpace=wrap;connectable=0;strokeColor=inherit;overflow=hidden;fillColor=none;top=0;left=0;bottom=0;right=0;pointerEvents=1;fontSize=16;" vertex="1" parent="7pEk1WBJAmm8HnfHb9Ro-11">
          <mxGeometry x="137" width="69" height="40" as="geometry">
            <mxRectangle width="69" height="40" as="alternateBounds" />
          </mxGeometry>
        </mxCell>
        <mxCell id="7pEk1WBJAmm8HnfHb9Ro-15" value="1" style="shape=partialRectangle;html=1;whiteSpace=wrap;connectable=0;strokeColor=inherit;overflow=hidden;fillColor=none;top=0;left=0;bottom=0;right=0;pointerEvents=1;fontSize=16;" vertex="1" parent="7pEk1WBJAmm8HnfHb9Ro-11">
          <mxGeometry x="206" width="69" height="40" as="geometry">
            <mxRectangle width="69" height="40" as="alternateBounds" />
          </mxGeometry>
        </mxCell>
        <mxCell id="7pEk1WBJAmm8HnfHb9Ro-16" value="13" style="shape=partialRectangle;html=1;whiteSpace=wrap;connectable=0;strokeColor=inherit;overflow=hidden;fillColor=none;top=0;left=0;bottom=0;right=0;pointerEvents=1;fontSize=16;" vertex="1" parent="7pEk1WBJAmm8HnfHb9Ro-11">
          <mxGeometry x="275" width="69" height="40" as="geometry">
            <mxRectangle width="69" height="40" as="alternateBounds" />
          </mxGeometry>
        </mxCell>
        <mxCell id="7pEk1WBJAmm8HnfHb9Ro-17" value="7" style="shape=partialRectangle;html=1;whiteSpace=wrap;connectable=0;strokeColor=inherit;overflow=hidden;fillColor=none;top=0;left=0;bottom=0;right=0;pointerEvents=1;fontSize=16;" vertex="1" parent="7pEk1WBJAmm8HnfHb9Ro-11">
          <mxGeometry x="344" width="69" height="40" as="geometry">
            <mxRectangle width="69" height="40" as="alternateBounds" />
          </mxGeometry>
        </mxCell>
        <mxCell id="7pEk1WBJAmm8HnfHb9Ro-18" value="i = 1" style="text;html=1;align=center;verticalAlign=middle;resizable=0;points=[];autosize=1;strokeColor=none;fillColor=none;" vertex="1" parent="1">
          <mxGeometry x="40" y="100" width="50" height="30" as="geometry" />
        </mxCell>
        <mxCell id="7pEk1WBJAmm8HnfHb9Ro-19" value="i = 2" style="text;html=1;align=center;verticalAlign=middle;resizable=0;points=[];autosize=1;strokeColor=none;fillColor=none;" vertex="1" parent="1">
          <mxGeometry x="40" y="220" width="50" height="30" as="geometry" />
        </mxCell>
        <mxCell id="7pEk1WBJAmm8HnfHb9Ro-20" style="edgeStyle=orthogonalEdgeStyle;rounded=0;orthogonalLoop=1;jettySize=auto;html=1;endArrow=none;startFill=0;startArrow=none;" edge="1" parent="1">
          <mxGeometry relative="1" as="geometry">
            <mxPoint x="260" y="200" as="targetPoint" />
            <mxPoint x="260" y="220" as="sourcePoint" />
            <Array as="points">
              <mxPoint x="260" y="220" />
              <mxPoint x="260" y="200" />
            </Array>
          </mxGeometry>
        </mxCell>
        <mxCell id="7pEk1WBJAmm8HnfHb9Ro-21" value="" style="shape=table;startSize=0;container=1;collapsible=0;childLayout=tableLayout;fontSize=16;" vertex="1" parent="1">
          <mxGeometry x="160" y="340" width="413" height="40" as="geometry" />
        </mxCell>
        <mxCell id="7pEk1WBJAmm8HnfHb9Ro-22" value="" style="shape=tableRow;horizontal=0;startSize=0;swimlaneHead=0;swimlaneBody=0;strokeColor=inherit;top=0;left=0;bottom=0;right=0;collapsible=0;dropTarget=0;fillColor=none;points=[[0,0.5],[1,0.5]];portConstraint=eastwest;fontSize=16;" vertex="1" parent="7pEk1WBJAmm8HnfHb9Ro-21">
          <mxGeometry width="413" height="40" as="geometry" />
        </mxCell>
        <mxCell id="7pEk1WBJAmm8HnfHb9Ro-23" value="2" style="shape=partialRectangle;html=1;whiteSpace=wrap;connectable=0;strokeColor=inherit;overflow=hidden;fillColor=none;top=0;left=0;bottom=0;right=0;pointerEvents=1;fontSize=16;" vertex="1" parent="7pEk1WBJAmm8HnfHb9Ro-22">
          <mxGeometry width="69" height="40" as="geometry">
            <mxRectangle width="69" height="40" as="alternateBounds" />
          </mxGeometry>
        </mxCell>
        <mxCell id="7pEk1WBJAmm8HnfHb9Ro-24" value="22" style="shape=partialRectangle;html=1;whiteSpace=wrap;connectable=0;strokeColor=inherit;overflow=hidden;fillColor=none;top=0;left=0;bottom=0;right=0;pointerEvents=1;fontSize=16;" vertex="1" parent="7pEk1WBJAmm8HnfHb9Ro-22">
          <mxGeometry x="69" width="68" height="40" as="geometry">
            <mxRectangle width="68" height="40" as="alternateBounds" />
          </mxGeometry>
        </mxCell>
        <mxCell id="7pEk1WBJAmm8HnfHb9Ro-25" value="35" style="shape=partialRectangle;html=1;whiteSpace=wrap;connectable=0;strokeColor=inherit;overflow=hidden;fillColor=none;top=0;left=0;bottom=0;right=0;pointerEvents=1;fontSize=16;" vertex="1" parent="7pEk1WBJAmm8HnfHb9Ro-22">
          <mxGeometry x="137" width="69" height="40" as="geometry">
            <mxRectangle width="69" height="40" as="alternateBounds" />
          </mxGeometry>
        </mxCell>
        <mxCell id="7pEk1WBJAmm8HnfHb9Ro-26" value="1" style="shape=partialRectangle;html=1;whiteSpace=wrap;connectable=0;strokeColor=inherit;overflow=hidden;fillColor=none;top=0;left=0;bottom=0;right=0;pointerEvents=1;fontSize=16;" vertex="1" parent="7pEk1WBJAmm8HnfHb9Ro-22">
          <mxGeometry x="206" width="69" height="40" as="geometry">
            <mxRectangle width="69" height="40" as="alternateBounds" />
          </mxGeometry>
        </mxCell>
        <mxCell id="7pEk1WBJAmm8HnfHb9Ro-27" value="13" style="shape=partialRectangle;html=1;whiteSpace=wrap;connectable=0;strokeColor=inherit;overflow=hidden;fillColor=none;top=0;left=0;bottom=0;right=0;pointerEvents=1;fontSize=16;" vertex="1" parent="7pEk1WBJAmm8HnfHb9Ro-22">
          <mxGeometry x="275" width="69" height="40" as="geometry">
            <mxRectangle width="69" height="40" as="alternateBounds" />
          </mxGeometry>
        </mxCell>
        <mxCell id="7pEk1WBJAmm8HnfHb9Ro-28" value="7" style="shape=partialRectangle;html=1;whiteSpace=wrap;connectable=0;strokeColor=inherit;overflow=hidden;fillColor=none;top=0;left=0;bottom=0;right=0;pointerEvents=1;fontSize=16;" vertex="1" parent="7pEk1WBJAmm8HnfHb9Ro-22">
          <mxGeometry x="344" width="69" height="40" as="geometry">
            <mxRectangle width="69" height="40" as="alternateBounds" />
          </mxGeometry>
        </mxCell>
        <mxCell id="7pEk1WBJAmm8HnfHb9Ro-29" value="i = 3" style="text;html=1;align=center;verticalAlign=middle;resizable=0;points=[];autosize=1;strokeColor=none;fillColor=none;" vertex="1" parent="1">
          <mxGeometry x="40" y="340" width="50" height="30" as="geometry" />
        </mxCell>
        <mxCell id="7pEk1WBJAmm8HnfHb9Ro-30" value="" style="shape=table;startSize=0;container=1;collapsible=0;childLayout=tableLayout;fontSize=16;" vertex="1" parent="1">
          <mxGeometry x="160" y="480" width="413" height="40" as="geometry" />
        </mxCell>
        <mxCell id="7pEk1WBJAmm8HnfHb9Ro-31" value="" style="shape=tableRow;horizontal=0;startSize=0;swimlaneHead=0;swimlaneBody=0;strokeColor=inherit;top=0;left=0;bottom=0;right=0;collapsible=0;dropTarget=0;fillColor=none;points=[[0,0.5],[1,0.5]];portConstraint=eastwest;fontSize=16;" vertex="1" parent="7pEk1WBJAmm8HnfHb9Ro-30">
          <mxGeometry width="413" height="40" as="geometry" />
        </mxCell>
        <mxCell id="7pEk1WBJAmm8HnfHb9Ro-32" value="1" style="shape=partialRectangle;html=1;whiteSpace=wrap;connectable=0;strokeColor=inherit;overflow=hidden;fillColor=none;top=0;left=0;bottom=0;right=0;pointerEvents=1;fontSize=16;" vertex="1" parent="7pEk1WBJAmm8HnfHb9Ro-31">
          <mxGeometry width="69" height="40" as="geometry">
            <mxRectangle width="69" height="40" as="alternateBounds" />
          </mxGeometry>
        </mxCell>
        <mxCell id="7pEk1WBJAmm8HnfHb9Ro-33" value="2" style="shape=partialRectangle;html=1;whiteSpace=wrap;connectable=0;strokeColor=inherit;overflow=hidden;fillColor=none;top=0;left=0;bottom=0;right=0;pointerEvents=1;fontSize=16;" vertex="1" parent="7pEk1WBJAmm8HnfHb9Ro-31">
          <mxGeometry x="69" width="68" height="40" as="geometry">
            <mxRectangle width="68" height="40" as="alternateBounds" />
          </mxGeometry>
        </mxCell>
        <mxCell id="7pEk1WBJAmm8HnfHb9Ro-34" value="22" style="shape=partialRectangle;html=1;whiteSpace=wrap;connectable=0;strokeColor=inherit;overflow=hidden;fillColor=none;top=0;left=0;bottom=0;right=0;pointerEvents=1;fontSize=16;" vertex="1" parent="7pEk1WBJAmm8HnfHb9Ro-31">
          <mxGeometry x="137" width="69" height="40" as="geometry">
            <mxRectangle width="69" height="40" as="alternateBounds" />
          </mxGeometry>
        </mxCell>
        <mxCell id="7pEk1WBJAmm8HnfHb9Ro-35" value="35" style="shape=partialRectangle;html=1;whiteSpace=wrap;connectable=0;strokeColor=inherit;overflow=hidden;fillColor=none;top=0;left=0;bottom=0;right=0;pointerEvents=1;fontSize=16;" vertex="1" parent="7pEk1WBJAmm8HnfHb9Ro-31">
          <mxGeometry x="206" width="69" height="40" as="geometry">
            <mxRectangle width="69" height="40" as="alternateBounds" />
          </mxGeometry>
        </mxCell>
        <mxCell id="7pEk1WBJAmm8HnfHb9Ro-36" value="13" style="shape=partialRectangle;html=1;whiteSpace=wrap;connectable=0;strokeColor=inherit;overflow=hidden;fillColor=none;top=0;left=0;bottom=0;right=0;pointerEvents=1;fontSize=16;" vertex="1" parent="7pEk1WBJAmm8HnfHb9Ro-31">
          <mxGeometry x="275" width="69" height="40" as="geometry">
            <mxRectangle width="69" height="40" as="alternateBounds" />
          </mxGeometry>
        </mxCell>
        <mxCell id="7pEk1WBJAmm8HnfHb9Ro-37" value="7" style="shape=partialRectangle;html=1;whiteSpace=wrap;connectable=0;strokeColor=inherit;overflow=hidden;fillColor=none;top=0;left=0;bottom=0;right=0;pointerEvents=1;fontSize=16;" vertex="1" parent="7pEk1WBJAmm8HnfHb9Ro-31">
          <mxGeometry x="344" width="69" height="40" as="geometry">
            <mxRectangle width="69" height="40" as="alternateBounds" />
          </mxGeometry>
        </mxCell>
        <mxCell id="7pEk1WBJAmm8HnfHb9Ro-38" value="i = 4" style="text;html=1;align=center;verticalAlign=middle;resizable=0;points=[];autosize=1;strokeColor=none;fillColor=none;" vertex="1" parent="1">
          <mxGeometry x="40" y="480" width="50" height="30" as="geometry" />
        </mxCell>
        <mxCell id="7pEk1WBJAmm8HnfHb9Ro-39" value="" style="shape=table;startSize=0;container=1;collapsible=0;childLayout=tableLayout;fontSize=16;" vertex="1" parent="1">
          <mxGeometry x="160" y="600" width="413" height="40" as="geometry" />
        </mxCell>
        <mxCell id="7pEk1WBJAmm8HnfHb9Ro-40" value="" style="shape=tableRow;horizontal=0;startSize=0;swimlaneHead=0;swimlaneBody=0;strokeColor=inherit;top=0;left=0;bottom=0;right=0;collapsible=0;dropTarget=0;fillColor=none;points=[[0,0.5],[1,0.5]];portConstraint=eastwest;fontSize=16;" vertex="1" parent="7pEk1WBJAmm8HnfHb9Ro-39">
          <mxGeometry width="413" height="40" as="geometry" />
        </mxCell>
        <mxCell id="7pEk1WBJAmm8HnfHb9Ro-41" value="1" style="shape=partialRectangle;html=1;whiteSpace=wrap;connectable=0;strokeColor=inherit;overflow=hidden;fillColor=none;top=0;left=0;bottom=0;right=0;pointerEvents=1;fontSize=16;" vertex="1" parent="7pEk1WBJAmm8HnfHb9Ro-40">
          <mxGeometry width="69" height="40" as="geometry">
            <mxRectangle width="69" height="40" as="alternateBounds" />
          </mxGeometry>
        </mxCell>
        <mxCell id="7pEk1WBJAmm8HnfHb9Ro-42" value="2" style="shape=partialRectangle;html=1;whiteSpace=wrap;connectable=0;strokeColor=inherit;overflow=hidden;fillColor=none;top=0;left=0;bottom=0;right=0;pointerEvents=1;fontSize=16;" vertex="1" parent="7pEk1WBJAmm8HnfHb9Ro-40">
          <mxGeometry x="69" width="68" height="40" as="geometry">
            <mxRectangle width="68" height="40" as="alternateBounds" />
          </mxGeometry>
        </mxCell>
        <mxCell id="7pEk1WBJAmm8HnfHb9Ro-43" value="7" style="shape=partialRectangle;html=1;whiteSpace=wrap;connectable=0;strokeColor=inherit;overflow=hidden;fillColor=none;top=0;left=0;bottom=0;right=0;pointerEvents=1;fontSize=16;" vertex="1" parent="7pEk1WBJAmm8HnfHb9Ro-40">
          <mxGeometry x="137" width="69" height="40" as="geometry">
            <mxRectangle width="69" height="40" as="alternateBounds" />
          </mxGeometry>
        </mxCell>
        <mxCell id="7pEk1WBJAmm8HnfHb9Ro-44" value="22" style="shape=partialRectangle;html=1;whiteSpace=wrap;connectable=0;strokeColor=inherit;overflow=hidden;fillColor=none;top=0;left=0;bottom=0;right=0;pointerEvents=1;fontSize=16;" vertex="1" parent="7pEk1WBJAmm8HnfHb9Ro-40">
          <mxGeometry x="206" width="69" height="40" as="geometry">
            <mxRectangle width="69" height="40" as="alternateBounds" />
          </mxGeometry>
        </mxCell>
        <mxCell id="7pEk1WBJAmm8HnfHb9Ro-45" value="35" style="shape=partialRectangle;html=1;whiteSpace=wrap;connectable=0;strokeColor=inherit;overflow=hidden;fillColor=none;top=0;left=0;bottom=0;right=0;pointerEvents=1;fontSize=16;" vertex="1" parent="7pEk1WBJAmm8HnfHb9Ro-40">
          <mxGeometry x="275" width="69" height="40" as="geometry">
            <mxRectangle width="69" height="40" as="alternateBounds" />
          </mxGeometry>
        </mxCell>
        <mxCell id="7pEk1WBJAmm8HnfHb9Ro-46" value="13" style="shape=partialRectangle;html=1;whiteSpace=wrap;connectable=0;strokeColor=inherit;overflow=hidden;fillColor=none;top=0;left=0;bottom=0;right=0;pointerEvents=1;fontSize=16;" vertex="1" parent="7pEk1WBJAmm8HnfHb9Ro-40">
          <mxGeometry x="344" width="69" height="40" as="geometry">
            <mxRectangle width="69" height="40" as="alternateBounds" />
          </mxGeometry>
        </mxCell>
        <mxCell id="7pEk1WBJAmm8HnfHb9Ro-47" value="i = 5" style="text;html=1;align=center;verticalAlign=middle;resizable=0;points=[];autosize=1;strokeColor=none;fillColor=none;" vertex="1" parent="1">
          <mxGeometry x="40" y="600" width="50" height="30" as="geometry" />
        </mxCell>
        <mxCell id="7pEk1WBJAmm8HnfHb9Ro-48" value="OK" style="text;html=1;align=center;verticalAlign=middle;resizable=0;points=[];autosize=1;strokeColor=none;fillColor=none;" vertex="1" parent="1">
          <mxGeometry x="615" y="100" width="40" height="30" as="geometry" />
        </mxCell>
        <mxCell id="7pEk1WBJAmm8HnfHb9Ro-49" value="TROCA" style="text;html=1;align=center;verticalAlign=middle;resizable=0;points=[];autosize=1;strokeColor=none;fillColor=none;" vertex="1" parent="1">
          <mxGeometry x="610" y="480" width="70" height="30" as="geometry" />
        </mxCell>
        <mxCell id="7pEk1WBJAmm8HnfHb9Ro-50" value="TROCA" style="text;html=1;align=center;verticalAlign=middle;resizable=0;points=[];autosize=1;strokeColor=none;fillColor=none;" vertex="1" parent="1">
          <mxGeometry x="610" y="340" width="70" height="30" as="geometry" />
        </mxCell>
        <mxCell id="7pEk1WBJAmm8HnfHb9Ro-51" value="TROCA" style="text;html=1;align=center;verticalAlign=middle;resizable=0;points=[];autosize=1;strokeColor=none;fillColor=none;" vertex="1" parent="1">
          <mxGeometry x="610" y="220" width="70" height="30" as="geometry" />
        </mxCell>
        <mxCell id="7pEk1WBJAmm8HnfHb9Ro-52" value="TROCA" style="text;html=1;align=center;verticalAlign=middle;resizable=0;points=[];autosize=1;strokeColor=none;fillColor=none;" vertex="1" parent="1">
          <mxGeometry x="610" y="600" width="70" height="30" as="geometry" />
        </mxCell>
        <mxCell id="7pEk1WBJAmm8HnfHb9Ro-53" value="" style="endArrow=classic;html=1;rounded=0;entryX=0.08;entryY=-0.05;entryDx=0;entryDy=0;entryPerimeter=0;" edge="1" parent="1">
          <mxGeometry width="50" height="50" relative="1" as="geometry">
            <mxPoint x="260" y="200" as="sourcePoint" />
            <mxPoint x="328" y="220" as="targetPoint" />
            <Array as="points">
              <mxPoint x="328" y="200" />
            </Array>
          </mxGeometry>
        </mxCell>
        <mxCell id="7pEk1WBJAmm8HnfHb9Ro-54" value="" style="curved=1;endArrow=classic;html=1;rounded=0;entryX=0.048;entryY=0;entryDx=0;entryDy=0;entryPerimeter=0;exitX=0.436;exitY=0;exitDx=0;exitDy=0;exitPerimeter=0;" edge="1" parent="1" source="7pEk1WBJAmm8HnfHb9Ro-11">
          <mxGeometry width="50" height="50" relative="1" as="geometry">
            <mxPoint x="394.0830000000001" y="213.08000000000004" as="sourcePoint" />
            <mxPoint x="169.82399999999984" y="215" as="targetPoint" />
            <Array as="points">
              <mxPoint x="350" y="180" />
              <mxPoint x="160" y="180" />
            </Array>
          </mxGeometry>
        </mxCell>
        <mxCell id="7pEk1WBJAmm8HnfHb9Ro-55" value="0" style="text;html=1;align=center;verticalAlign=middle;resizable=0;points=[];autosize=1;strokeColor=none;fillColor=none;" vertex="1" parent="1">
          <mxGeometry x="180" y="260" width="30" height="30" as="geometry" />
        </mxCell>
        <mxCell id="7pEk1WBJAmm8HnfHb9Ro-56" value="1" style="text;html=1;align=center;verticalAlign=middle;resizable=0;points=[];autosize=1;strokeColor=none;fillColor=none;" vertex="1" parent="1">
          <mxGeometry x="250" y="260" width="30" height="30" as="geometry" />
        </mxCell>
        <mxCell id="7pEk1WBJAmm8HnfHb9Ro-57" value="2" style="text;html=1;align=center;verticalAlign=middle;resizable=0;points=[];autosize=1;strokeColor=none;fillColor=none;" vertex="1" parent="1">
          <mxGeometry x="320" y="260" width="30" height="30" as="geometry" />
        </mxCell>
        <mxCell id="7pEk1WBJAmm8HnfHb9Ro-58" value="3" style="text;html=1;align=center;verticalAlign=middle;resizable=0;points=[];autosize=1;strokeColor=none;fillColor=none;" vertex="1" parent="1">
          <mxGeometry x="384" y="260" width="30" height="30" as="geometry" />
        </mxCell>
        <mxCell id="7pEk1WBJAmm8HnfHb9Ro-59" value="4" style="text;html=1;align=center;verticalAlign=middle;resizable=0;points=[];autosize=1;strokeColor=none;fillColor=none;" vertex="1" parent="1">
          <mxGeometry x="450" y="260" width="30" height="30" as="geometry" />
        </mxCell>
        <mxCell id="7pEk1WBJAmm8HnfHb9Ro-60" value="5" style="text;html=1;align=center;verticalAlign=middle;resizable=0;points=[];autosize=1;strokeColor=none;fillColor=none;" vertex="1" parent="1">
          <mxGeometry x="520" y="260" width="30" height="30" as="geometry" />
        </mxCell>
        <mxCell id="7pEk1WBJAmm8HnfHb9Ro-61" style="edgeStyle=orthogonalEdgeStyle;rounded=0;orthogonalLoop=1;jettySize=auto;html=1;endArrow=none;startFill=0;startArrow=none;" edge="1" parent="1">
          <mxGeometry relative="1" as="geometry">
            <mxPoint x="180" y="200" as="targetPoint" />
            <mxPoint x="180" y="220" as="sourcePoint" />
            <Array as="points">
              <mxPoint x="180" y="220" />
              <mxPoint x="180" y="200" />
            </Array>
          </mxGeometry>
        </mxCell>
        <mxCell id="7pEk1WBJAmm8HnfHb9Ro-62" value="" style="endArrow=classic;html=1;rounded=0;entryX=0.08;entryY=-0.05;entryDx=0;entryDy=0;entryPerimeter=0;" edge="1" parent="1">
          <mxGeometry width="50" height="50" relative="1" as="geometry">
            <mxPoint x="180" y="200" as="sourcePoint" />
            <mxPoint x="248" y="220" as="targetPoint" />
            <Array as="points">
              <mxPoint x="248" y="200" />
            </Array>
          </mxGeometry>
        </mxCell>
        <mxCell id="7pEk1WBJAmm8HnfHb9Ro-63" style="edgeStyle=orthogonalEdgeStyle;rounded=0;orthogonalLoop=1;jettySize=auto;html=1;endArrow=none;startFill=0;startArrow=none;" edge="1" parent="1">
          <mxGeometry relative="1" as="geometry">
            <mxPoint x="332.5" y="320" as="targetPoint" />
            <mxPoint x="332.5" y="340" as="sourcePoint" />
            <Array as="points">
              <mxPoint x="332.5" y="340" />
              <mxPoint x="332.5" y="320" />
            </Array>
          </mxGeometry>
        </mxCell>
        <mxCell id="7pEk1WBJAmm8HnfHb9Ro-64" value="" style="endArrow=classic;html=1;rounded=0;entryX=0.08;entryY=-0.05;entryDx=0;entryDy=0;entryPerimeter=0;" edge="1" parent="1">
          <mxGeometry width="50" height="50" relative="1" as="geometry">
            <mxPoint x="332.5" y="320" as="sourcePoint" />
            <mxPoint x="400.5" y="340" as="targetPoint" />
            <Array as="points">
              <mxPoint x="400.5" y="320" />
            </Array>
          </mxGeometry>
        </mxCell>
        <mxCell id="7pEk1WBJAmm8HnfHb9Ro-65" style="edgeStyle=orthogonalEdgeStyle;rounded=0;orthogonalLoop=1;jettySize=auto;html=1;endArrow=none;startFill=0;startArrow=none;" edge="1" parent="1">
          <mxGeometry relative="1" as="geometry">
            <mxPoint x="252" y="320" as="targetPoint" />
            <mxPoint x="252" y="340" as="sourcePoint" />
            <Array as="points">
              <mxPoint x="252" y="340" />
              <mxPoint x="252" y="320" />
            </Array>
          </mxGeometry>
        </mxCell>
        <mxCell id="7pEk1WBJAmm8HnfHb9Ro-66" value="" style="endArrow=classic;html=1;rounded=0;entryX=0.08;entryY=-0.05;entryDx=0;entryDy=0;entryPerimeter=0;" edge="1" parent="1">
          <mxGeometry width="50" height="50" relative="1" as="geometry">
            <mxPoint x="252" y="320" as="sourcePoint" />
            <mxPoint x="320" y="340" as="targetPoint" />
            <Array as="points">
              <mxPoint x="320" y="320" />
            </Array>
          </mxGeometry>
        </mxCell>
        <mxCell id="7pEk1WBJAmm8HnfHb9Ro-67" style="edgeStyle=orthogonalEdgeStyle;rounded=0;orthogonalLoop=1;jettySize=auto;html=1;endArrow=none;startFill=0;startArrow=none;" edge="1" parent="1">
          <mxGeometry relative="1" as="geometry">
            <mxPoint x="180" y="320" as="targetPoint" />
            <mxPoint x="180" y="340" as="sourcePoint" />
            <Array as="points">
              <mxPoint x="180" y="340" />
              <mxPoint x="180" y="320" />
            </Array>
          </mxGeometry>
        </mxCell>
        <mxCell id="7pEk1WBJAmm8HnfHb9Ro-68" value="" style="endArrow=classic;html=1;rounded=0;entryX=0.194;entryY=-0.01;entryDx=0;entryDy=0;entryPerimeter=0;" edge="1" parent="1" target="7pEk1WBJAmm8HnfHb9Ro-22">
          <mxGeometry width="50" height="50" relative="1" as="geometry">
            <mxPoint x="180" y="320" as="sourcePoint" />
            <mxPoint x="248" y="340" as="targetPoint" />
            <Array as="points">
              <mxPoint x="240" y="320" />
            </Array>
          </mxGeometry>
        </mxCell>
        <mxCell id="7pEk1WBJAmm8HnfHb9Ro-69" value="" style="curved=1;endArrow=classic;html=1;rounded=0;exitX=0.436;exitY=0;exitDx=0;exitDy=0;exitPerimeter=0;" edge="1" parent="1">
          <mxGeometry width="50" height="50" relative="1" as="geometry">
            <mxPoint x="420" y="340" as="sourcePoint" />
            <mxPoint x="170" y="335" as="targetPoint" />
            <Array as="points">
              <mxPoint x="430" y="300" />
              <mxPoint x="160" y="290" />
            </Array>
          </mxGeometry>
        </mxCell>
        <mxCell id="7pEk1WBJAmm8HnfHb9Ro-70" value="0" style="text;html=1;align=center;verticalAlign=middle;resizable=0;points=[];autosize=1;strokeColor=none;fillColor=none;" vertex="1" parent="1">
          <mxGeometry x="180" y="380" width="30" height="30" as="geometry" />
        </mxCell>
        <mxCell id="7pEk1WBJAmm8HnfHb9Ro-71" value="1" style="text;html=1;align=center;verticalAlign=middle;resizable=0;points=[];autosize=1;strokeColor=none;fillColor=none;" vertex="1" parent="1">
          <mxGeometry x="250" y="380" width="30" height="30" as="geometry" />
        </mxCell>
        <mxCell id="7pEk1WBJAmm8HnfHb9Ro-72" value="2" style="text;html=1;align=center;verticalAlign=middle;resizable=0;points=[];autosize=1;strokeColor=none;fillColor=none;" vertex="1" parent="1">
          <mxGeometry x="320" y="380" width="30" height="30" as="geometry" />
        </mxCell>
        <mxCell id="7pEk1WBJAmm8HnfHb9Ro-73" value="3" style="text;html=1;align=center;verticalAlign=middle;resizable=0;points=[];autosize=1;strokeColor=none;fillColor=none;" vertex="1" parent="1">
          <mxGeometry x="384" y="380" width="30" height="30" as="geometry" />
        </mxCell>
        <mxCell id="7pEk1WBJAmm8HnfHb9Ro-74" value="4" style="text;html=1;align=center;verticalAlign=middle;resizable=0;points=[];autosize=1;strokeColor=none;fillColor=none;" vertex="1" parent="1">
          <mxGeometry x="450" y="380" width="30" height="30" as="geometry" />
        </mxCell>
        <mxCell id="7pEk1WBJAmm8HnfHb9Ro-75" value="5" style="text;html=1;align=center;verticalAlign=middle;resizable=0;points=[];autosize=1;strokeColor=none;fillColor=none;" vertex="1" parent="1">
          <mxGeometry x="520" y="380" width="30" height="30" as="geometry" />
        </mxCell>
        <mxCell id="7pEk1WBJAmm8HnfHb9Ro-76" value="0" style="text;html=1;align=center;verticalAlign=middle;resizable=0;points=[];autosize=1;strokeColor=none;fillColor=none;" vertex="1" parent="1">
          <mxGeometry x="180" y="520" width="30" height="30" as="geometry" />
        </mxCell>
        <mxCell id="7pEk1WBJAmm8HnfHb9Ro-77" value="1" style="text;html=1;align=center;verticalAlign=middle;resizable=0;points=[];autosize=1;strokeColor=none;fillColor=none;" vertex="1" parent="1">
          <mxGeometry x="250" y="520" width="30" height="30" as="geometry" />
        </mxCell>
        <mxCell id="7pEk1WBJAmm8HnfHb9Ro-78" value="2" style="text;html=1;align=center;verticalAlign=middle;resizable=0;points=[];autosize=1;strokeColor=none;fillColor=none;" vertex="1" parent="1">
          <mxGeometry x="320" y="520" width="30" height="30" as="geometry" />
        </mxCell>
        <mxCell id="7pEk1WBJAmm8HnfHb9Ro-79" value="3" style="text;html=1;align=center;verticalAlign=middle;resizable=0;points=[];autosize=1;strokeColor=none;fillColor=none;" vertex="1" parent="1">
          <mxGeometry x="384" y="520" width="30" height="30" as="geometry" />
        </mxCell>
        <mxCell id="7pEk1WBJAmm8HnfHb9Ro-80" value="4" style="text;html=1;align=center;verticalAlign=middle;resizable=0;points=[];autosize=1;strokeColor=none;fillColor=none;" vertex="1" parent="1">
          <mxGeometry x="450" y="520" width="30" height="30" as="geometry" />
        </mxCell>
        <mxCell id="7pEk1WBJAmm8HnfHb9Ro-81" value="5" style="text;html=1;align=center;verticalAlign=middle;resizable=0;points=[];autosize=1;strokeColor=none;fillColor=none;" vertex="1" parent="1">
          <mxGeometry x="520" y="520" width="30" height="30" as="geometry" />
        </mxCell>
        <mxCell id="7pEk1WBJAmm8HnfHb9Ro-82" style="edgeStyle=orthogonalEdgeStyle;rounded=0;orthogonalLoop=1;jettySize=auto;html=1;endArrow=none;startFill=0;startArrow=none;" edge="1" parent="1">
          <mxGeometry relative="1" as="geometry">
            <mxPoint x="400" y="460" as="targetPoint" />
            <mxPoint x="400" y="480" as="sourcePoint" />
            <Array as="points">
              <mxPoint x="400" y="480" />
              <mxPoint x="400" y="460" />
            </Array>
          </mxGeometry>
        </mxCell>
        <mxCell id="7pEk1WBJAmm8HnfHb9Ro-83" value="" style="endArrow=classic;html=1;rounded=0;entryX=0.08;entryY=-0.05;entryDx=0;entryDy=0;entryPerimeter=0;" edge="1" parent="1">
          <mxGeometry width="50" height="50" relative="1" as="geometry">
            <mxPoint x="400" y="460" as="sourcePoint" />
            <mxPoint x="468" y="480" as="targetPoint" />
            <Array as="points">
              <mxPoint x="468" y="460" />
            </Array>
          </mxGeometry>
        </mxCell>
        <mxCell id="7pEk1WBJAmm8HnfHb9Ro-84" style="edgeStyle=orthogonalEdgeStyle;rounded=0;orthogonalLoop=1;jettySize=auto;html=1;endArrow=none;startFill=0;startArrow=none;" edge="1" parent="1">
          <mxGeometry relative="1" as="geometry">
            <mxPoint x="320" y="460" as="targetPoint" />
            <mxPoint x="320" y="480" as="sourcePoint" />
            <Array as="points">
              <mxPoint x="320" y="480" />
              <mxPoint x="320" y="460" />
            </Array>
          </mxGeometry>
        </mxCell>
        <mxCell id="7pEk1WBJAmm8HnfHb9Ro-85" value="" style="endArrow=classic;html=1;rounded=0;entryX=0.08;entryY=-0.05;entryDx=0;entryDy=0;entryPerimeter=0;" edge="1" parent="1">
          <mxGeometry width="50" height="50" relative="1" as="geometry">
            <mxPoint x="320" y="460" as="sourcePoint" />
            <mxPoint x="388" y="480" as="targetPoint" />
            <Array as="points">
              <mxPoint x="388" y="460" />
            </Array>
          </mxGeometry>
        </mxCell>
        <mxCell id="7pEk1WBJAmm8HnfHb9Ro-86" value="" style="curved=1;endArrow=classic;html=1;rounded=0;exitX=0.957;exitY=-0.071;exitDx=0;exitDy=0;exitPerimeter=0;" edge="1" parent="1" source="7pEk1WBJAmm8HnfHb9Ro-31">
          <mxGeometry width="50" height="50" relative="1" as="geometry">
            <mxPoint x="563" y="480" as="sourcePoint" />
            <mxPoint x="313" y="475" as="targetPoint" />
            <Array as="points">
              <mxPoint x="590" y="430" />
              <mxPoint x="303" y="430" />
            </Array>
          </mxGeometry>
        </mxCell>
        <mxCell id="7pEk1WBJAmm8HnfHb9Ro-87" value="0" style="text;html=1;align=center;verticalAlign=middle;resizable=0;points=[];autosize=1;strokeColor=none;fillColor=none;" vertex="1" parent="1">
          <mxGeometry x="181.5" y="640" width="30" height="30" as="geometry" />
        </mxCell>
        <mxCell id="7pEk1WBJAmm8HnfHb9Ro-88" value="1" style="text;html=1;align=center;verticalAlign=middle;resizable=0;points=[];autosize=1;strokeColor=none;fillColor=none;" vertex="1" parent="1">
          <mxGeometry x="251.5" y="640" width="30" height="30" as="geometry" />
        </mxCell>
        <mxCell id="7pEk1WBJAmm8HnfHb9Ro-89" value="2" style="text;html=1;align=center;verticalAlign=middle;resizable=0;points=[];autosize=1;strokeColor=none;fillColor=none;" vertex="1" parent="1">
          <mxGeometry x="321.5" y="640" width="30" height="30" as="geometry" />
        </mxCell>
        <mxCell id="7pEk1WBJAmm8HnfHb9Ro-90" value="3" style="text;html=1;align=center;verticalAlign=middle;resizable=0;points=[];autosize=1;strokeColor=none;fillColor=none;" vertex="1" parent="1">
          <mxGeometry x="385.5" y="640" width="30" height="30" as="geometry" />
        </mxCell>
        <mxCell id="7pEk1WBJAmm8HnfHb9Ro-91" value="4" style="text;html=1;align=center;verticalAlign=middle;resizable=0;points=[];autosize=1;strokeColor=none;fillColor=none;" vertex="1" parent="1">
          <mxGeometry x="451.5" y="640" width="30" height="30" as="geometry" />
        </mxCell>
        <mxCell id="7pEk1WBJAmm8HnfHb9Ro-92" value="5" style="text;html=1;align=center;verticalAlign=middle;resizable=0;points=[];autosize=1;strokeColor=none;fillColor=none;" vertex="1" parent="1">
          <mxGeometry x="521.5" y="640" width="30" height="30" as="geometry" />
        </mxCell>
        <mxCell id="7pEk1WBJAmm8HnfHb9Ro-93" style="edgeStyle=orthogonalEdgeStyle;rounded=0;orthogonalLoop=1;jettySize=auto;html=1;endArrow=none;startFill=0;startArrow=none;" edge="1" parent="1">
          <mxGeometry relative="1" as="geometry">
            <mxPoint x="480" y="460" as="targetPoint" />
            <mxPoint x="480" y="480" as="sourcePoint" />
            <Array as="points">
              <mxPoint x="480" y="480" />
              <mxPoint x="480" y="460" />
            </Array>
          </mxGeometry>
        </mxCell>
        <mxCell id="7pEk1WBJAmm8HnfHb9Ro-94" value="" style="endArrow=classic;html=1;rounded=0;entryX=0.08;entryY=-0.05;entryDx=0;entryDy=0;entryPerimeter=0;" edge="1" parent="1">
          <mxGeometry width="50" height="50" relative="1" as="geometry">
            <mxPoint x="480" y="460" as="sourcePoint" />
            <mxPoint x="548" y="480" as="targetPoint" />
            <Array as="points">
              <mxPoint x="548" y="460" />
            </Array>
          </mxGeometry>
        </mxCell>
        <mxCell id="7pEk1WBJAmm8HnfHb9Ro-95" style="edgeStyle=orthogonalEdgeStyle;rounded=0;orthogonalLoop=1;jettySize=auto;html=1;endArrow=none;startFill=0;startArrow=none;" edge="1" parent="1">
          <mxGeometry relative="1" as="geometry">
            <mxPoint x="397" y="580" as="targetPoint" />
            <mxPoint x="397" y="600" as="sourcePoint" />
            <Array as="points">
              <mxPoint x="397" y="600" />
              <mxPoint x="397" y="580" />
            </Array>
          </mxGeometry>
        </mxCell>
        <mxCell id="7pEk1WBJAmm8HnfHb9Ro-96" value="" style="endArrow=classic;html=1;rounded=0;entryX=0.08;entryY=-0.05;entryDx=0;entryDy=0;entryPerimeter=0;" edge="1" parent="1">
          <mxGeometry width="50" height="50" relative="1" as="geometry">
            <mxPoint x="397" y="580" as="sourcePoint" />
            <mxPoint x="465" y="600" as="targetPoint" />
            <Array as="points">
              <mxPoint x="465" y="580" />
            </Array>
          </mxGeometry>
        </mxCell>
        <mxCell id="7pEk1WBJAmm8HnfHb9Ro-97" value="" style="curved=1;endArrow=classic;html=1;rounded=0;exitX=0.957;exitY=-0.071;exitDx=0;exitDy=0;exitPerimeter=0;entryX=0.547;entryY=-0.057;entryDx=0;entryDy=0;entryPerimeter=0;" edge="1" parent="1" target="7pEk1WBJAmm8HnfHb9Ro-40">
          <mxGeometry width="50" height="50" relative="1" as="geometry">
            <mxPoint x="552" y="597" as="sourcePoint" />
            <mxPoint x="310" y="595" as="targetPoint" />
            <Array as="points">
              <mxPoint x="587" y="550" />
              <mxPoint x="370" y="550" />
            </Array>
          </mxGeometry>
        </mxCell>
        <mxCell id="7pEk1WBJAmm8HnfHb9Ro-98" style="edgeStyle=orthogonalEdgeStyle;rounded=0;orthogonalLoop=1;jettySize=auto;html=1;endArrow=none;startFill=0;startArrow=none;" edge="1" parent="1">
          <mxGeometry relative="1" as="geometry">
            <mxPoint x="477" y="580" as="targetPoint" />
            <mxPoint x="477" y="600" as="sourcePoint" />
            <Array as="points">
              <mxPoint x="477" y="600" />
              <mxPoint x="477" y="580" />
            </Array>
          </mxGeometry>
        </mxCell>
        <mxCell id="7pEk1WBJAmm8HnfHb9Ro-99" value="" style="endArrow=classic;html=1;rounded=0;entryX=0.08;entryY=-0.05;entryDx=0;entryDy=0;entryPerimeter=0;" edge="1" parent="1">
          <mxGeometry width="50" height="50" relative="1" as="geometry">
            <mxPoint x="477" y="580" as="sourcePoint" />
            <mxPoint x="545" y="600" as="targetPoint" />
            <Array as="points">
              <mxPoint x="545" y="580" />
            </Array>
          </mxGeometry>
        </mxCell>
      </root>
    </mxGraphModel>
  </diagram>
  <diagram id="dXIXewp9HQ0RXMdXCntD" name="Bolha">
    <mxGraphModel dx="1723" dy="648" grid="1" gridSize="10" guides="1" tooltips="1" connect="1" arrows="1" fold="1" page="1" pageScale="1" pageWidth="827" pageHeight="1169" math="0" shadow="0">
      <root>
        <mxCell id="0" />
        <mxCell id="1" parent="0" />
        <mxCell id="s1utbYugRxTJcOhx7e8c-1" value="BOLHA" style="text;html=1;align=center;verticalAlign=middle;resizable=0;points=[];autosize=1;strokeColor=none;fillColor=none;" vertex="1" parent="1">
          <mxGeometry x="90" y="40" width="60" height="30" as="geometry" />
        </mxCell>
        <mxCell id="s1utbYugRxTJcOhx7e8c-2" value="" style="shape=table;startSize=0;container=1;collapsible=0;childLayout=tableLayout;fontSize=16;" vertex="1" parent="1">
          <mxGeometry x="160" y="100" width="413" height="40" as="geometry" />
        </mxCell>
        <mxCell id="s1utbYugRxTJcOhx7e8c-3" value="" style="shape=tableRow;horizontal=0;startSize=0;swimlaneHead=0;swimlaneBody=0;strokeColor=inherit;top=0;left=0;bottom=0;right=0;collapsible=0;dropTarget=0;fillColor=none;points=[[0,0.5],[1,0.5]];portConstraint=eastwest;fontSize=16;" vertex="1" parent="s1utbYugRxTJcOhx7e8c-2">
          <mxGeometry width="413" height="40" as="geometry" />
        </mxCell>
        <mxCell id="s1utbYugRxTJcOhx7e8c-4" value="22" style="shape=partialRectangle;html=1;whiteSpace=wrap;connectable=0;strokeColor=inherit;overflow=hidden;fillColor=none;top=0;left=0;bottom=0;right=0;pointerEvents=1;fontSize=16;" vertex="1" parent="s1utbYugRxTJcOhx7e8c-3">
          <mxGeometry width="69" height="40" as="geometry">
            <mxRectangle width="69" height="40" as="alternateBounds" />
          </mxGeometry>
        </mxCell>
        <mxCell id="s1utbYugRxTJcOhx7e8c-5" value="35" style="shape=partialRectangle;html=1;whiteSpace=wrap;connectable=0;strokeColor=inherit;overflow=hidden;fillColor=none;top=0;left=0;bottom=0;right=0;pointerEvents=1;fontSize=16;" vertex="1" parent="s1utbYugRxTJcOhx7e8c-3">
          <mxGeometry x="69" width="68" height="40" as="geometry">
            <mxRectangle width="68" height="40" as="alternateBounds" />
          </mxGeometry>
        </mxCell>
        <mxCell id="s1utbYugRxTJcOhx7e8c-6" value="2" style="shape=partialRectangle;html=1;whiteSpace=wrap;connectable=0;strokeColor=inherit;overflow=hidden;fillColor=none;top=0;left=0;bottom=0;right=0;pointerEvents=1;fontSize=16;" vertex="1" parent="s1utbYugRxTJcOhx7e8c-3">
          <mxGeometry x="137" width="69" height="40" as="geometry">
            <mxRectangle width="69" height="40" as="alternateBounds" />
          </mxGeometry>
        </mxCell>
        <mxCell id="s1utbYugRxTJcOhx7e8c-7" value="1" style="shape=partialRectangle;html=1;whiteSpace=wrap;connectable=0;strokeColor=inherit;overflow=hidden;fillColor=none;top=0;left=0;bottom=0;right=0;pointerEvents=1;fontSize=16;" vertex="1" parent="s1utbYugRxTJcOhx7e8c-3">
          <mxGeometry x="206" width="69" height="40" as="geometry">
            <mxRectangle width="69" height="40" as="alternateBounds" />
          </mxGeometry>
        </mxCell>
        <mxCell id="s1utbYugRxTJcOhx7e8c-8" value="13" style="shape=partialRectangle;html=1;whiteSpace=wrap;connectable=0;strokeColor=inherit;overflow=hidden;fillColor=none;top=0;left=0;bottom=0;right=0;pointerEvents=1;fontSize=16;" vertex="1" parent="s1utbYugRxTJcOhx7e8c-3">
          <mxGeometry x="275" width="69" height="40" as="geometry">
            <mxRectangle width="69" height="40" as="alternateBounds" />
          </mxGeometry>
        </mxCell>
        <mxCell id="s1utbYugRxTJcOhx7e8c-9" value="7" style="shape=partialRectangle;html=1;whiteSpace=wrap;connectable=0;strokeColor=inherit;overflow=hidden;fillColor=none;top=0;left=0;bottom=0;right=0;pointerEvents=1;fontSize=16;" vertex="1" parent="s1utbYugRxTJcOhx7e8c-3">
          <mxGeometry x="344" width="69" height="40" as="geometry">
            <mxRectangle width="69" height="40" as="alternateBounds" />
          </mxGeometry>
        </mxCell>
        <mxCell id="s1utbYugRxTJcOhx7e8c-10" value="" style="shape=table;startSize=0;container=1;collapsible=0;childLayout=tableLayout;fontSize=16;" vertex="1" parent="1">
          <mxGeometry x="160" y="200" width="413" height="40" as="geometry" />
        </mxCell>
        <mxCell id="s1utbYugRxTJcOhx7e8c-11" value="" style="shape=tableRow;horizontal=0;startSize=0;swimlaneHead=0;swimlaneBody=0;strokeColor=inherit;top=0;left=0;bottom=0;right=0;collapsible=0;dropTarget=0;fillColor=none;points=[[0,0.5],[1,0.5]];portConstraint=eastwest;fontSize=16;" vertex="1" parent="s1utbYugRxTJcOhx7e8c-10">
          <mxGeometry width="413" height="40" as="geometry" />
        </mxCell>
        <mxCell id="s1utbYugRxTJcOhx7e8c-12" value="22" style="shape=partialRectangle;html=1;whiteSpace=wrap;connectable=0;strokeColor=inherit;overflow=hidden;fillColor=none;top=0;left=0;bottom=0;right=0;pointerEvents=1;fontSize=16;" vertex="1" parent="s1utbYugRxTJcOhx7e8c-11">
          <mxGeometry width="69" height="40" as="geometry">
            <mxRectangle width="69" height="40" as="alternateBounds" />
          </mxGeometry>
        </mxCell>
        <mxCell id="s1utbYugRxTJcOhx7e8c-13" value="2" style="shape=partialRectangle;html=1;whiteSpace=wrap;connectable=0;strokeColor=inherit;overflow=hidden;fillColor=none;top=0;left=0;bottom=0;right=0;pointerEvents=1;fontSize=16;" vertex="1" parent="s1utbYugRxTJcOhx7e8c-11">
          <mxGeometry x="69" width="68" height="40" as="geometry">
            <mxRectangle width="68" height="40" as="alternateBounds" />
          </mxGeometry>
        </mxCell>
        <mxCell id="s1utbYugRxTJcOhx7e8c-14" value="1" style="shape=partialRectangle;html=1;whiteSpace=wrap;connectable=0;strokeColor=inherit;overflow=hidden;fillColor=none;top=0;left=0;bottom=0;right=0;pointerEvents=1;fontSize=16;" vertex="1" parent="s1utbYugRxTJcOhx7e8c-11">
          <mxGeometry x="137" width="69" height="40" as="geometry">
            <mxRectangle width="69" height="40" as="alternateBounds" />
          </mxGeometry>
        </mxCell>
        <mxCell id="s1utbYugRxTJcOhx7e8c-15" value="13" style="shape=partialRectangle;html=1;whiteSpace=wrap;connectable=0;strokeColor=inherit;overflow=hidden;fillColor=none;top=0;left=0;bottom=0;right=0;pointerEvents=1;fontSize=16;" vertex="1" parent="s1utbYugRxTJcOhx7e8c-11">
          <mxGeometry x="206" width="69" height="40" as="geometry">
            <mxRectangle width="69" height="40" as="alternateBounds" />
          </mxGeometry>
        </mxCell>
        <mxCell id="s1utbYugRxTJcOhx7e8c-16" value="7" style="shape=partialRectangle;html=1;whiteSpace=wrap;connectable=0;strokeColor=inherit;overflow=hidden;fillColor=none;top=0;left=0;bottom=0;right=0;pointerEvents=1;fontSize=16;" vertex="1" parent="s1utbYugRxTJcOhx7e8c-11">
          <mxGeometry x="275" width="69" height="40" as="geometry">
            <mxRectangle width="69" height="40" as="alternateBounds" />
          </mxGeometry>
        </mxCell>
        <mxCell id="s1utbYugRxTJcOhx7e8c-17" value="35" style="shape=partialRectangle;html=1;whiteSpace=wrap;connectable=0;strokeColor=inherit;overflow=hidden;fillColor=none;top=0;left=0;bottom=0;right=0;pointerEvents=1;fontSize=16;" vertex="1" parent="s1utbYugRxTJcOhx7e8c-11">
          <mxGeometry x="344" width="69" height="40" as="geometry">
            <mxRectangle width="69" height="40" as="alternateBounds" />
          </mxGeometry>
        </mxCell>
        <mxCell id="s1utbYugRxTJcOhx7e8c-18" value="i = 0" style="text;html=1;align=center;verticalAlign=middle;resizable=0;points=[];autosize=1;strokeColor=none;fillColor=none;" vertex="1" parent="1">
          <mxGeometry x="40" y="100" width="50" height="30" as="geometry" />
        </mxCell>
        <mxCell id="s1utbYugRxTJcOhx7e8c-19" value="i = 1" style="text;html=1;align=center;verticalAlign=middle;resizable=0;points=[];autosize=1;strokeColor=none;fillColor=none;" vertex="1" parent="1">
          <mxGeometry x="40" y="200" width="50" height="30" as="geometry" />
        </mxCell>
        <mxCell id="s1utbYugRxTJcOhx7e8c-21" value="" style="shape=table;startSize=0;container=1;collapsible=0;childLayout=tableLayout;fontSize=16;" vertex="1" parent="1">
          <mxGeometry x="160" y="290" width="413" height="40" as="geometry" />
        </mxCell>
        <mxCell id="s1utbYugRxTJcOhx7e8c-22" value="" style="shape=tableRow;horizontal=0;startSize=0;swimlaneHead=0;swimlaneBody=0;strokeColor=inherit;top=0;left=0;bottom=0;right=0;collapsible=0;dropTarget=0;fillColor=none;points=[[0,0.5],[1,0.5]];portConstraint=eastwest;fontSize=16;" vertex="1" parent="s1utbYugRxTJcOhx7e8c-21">
          <mxGeometry width="413" height="40" as="geometry" />
        </mxCell>
        <mxCell id="s1utbYugRxTJcOhx7e8c-23" value="2" style="shape=partialRectangle;html=1;whiteSpace=wrap;connectable=0;strokeColor=inherit;overflow=hidden;fillColor=none;top=0;left=0;bottom=0;right=0;pointerEvents=1;fontSize=16;" vertex="1" parent="s1utbYugRxTJcOhx7e8c-22">
          <mxGeometry width="69" height="40" as="geometry">
            <mxRectangle width="69" height="40" as="alternateBounds" />
          </mxGeometry>
        </mxCell>
        <mxCell id="s1utbYugRxTJcOhx7e8c-24" value="1" style="shape=partialRectangle;html=1;whiteSpace=wrap;connectable=0;strokeColor=inherit;overflow=hidden;fillColor=none;top=0;left=0;bottom=0;right=0;pointerEvents=1;fontSize=16;" vertex="1" parent="s1utbYugRxTJcOhx7e8c-22">
          <mxGeometry x="69" width="68" height="40" as="geometry">
            <mxRectangle width="68" height="40" as="alternateBounds" />
          </mxGeometry>
        </mxCell>
        <mxCell id="s1utbYugRxTJcOhx7e8c-25" value="13" style="shape=partialRectangle;html=1;whiteSpace=wrap;connectable=0;strokeColor=inherit;overflow=hidden;fillColor=none;top=0;left=0;bottom=0;right=0;pointerEvents=1;fontSize=16;" vertex="1" parent="s1utbYugRxTJcOhx7e8c-22">
          <mxGeometry x="137" width="69" height="40" as="geometry">
            <mxRectangle width="69" height="40" as="alternateBounds" />
          </mxGeometry>
        </mxCell>
        <mxCell id="s1utbYugRxTJcOhx7e8c-26" value="7" style="shape=partialRectangle;html=1;whiteSpace=wrap;connectable=0;strokeColor=inherit;overflow=hidden;fillColor=none;top=0;left=0;bottom=0;right=0;pointerEvents=1;fontSize=16;" vertex="1" parent="s1utbYugRxTJcOhx7e8c-22">
          <mxGeometry x="206" width="69" height="40" as="geometry">
            <mxRectangle width="69" height="40" as="alternateBounds" />
          </mxGeometry>
        </mxCell>
        <mxCell id="s1utbYugRxTJcOhx7e8c-27" value="22" style="shape=partialRectangle;html=1;whiteSpace=wrap;connectable=0;strokeColor=inherit;overflow=hidden;fillColor=none;top=0;left=0;bottom=0;right=0;pointerEvents=1;fontSize=16;" vertex="1" parent="s1utbYugRxTJcOhx7e8c-22">
          <mxGeometry x="275" width="69" height="40" as="geometry">
            <mxRectangle width="69" height="40" as="alternateBounds" />
          </mxGeometry>
        </mxCell>
        <mxCell id="s1utbYugRxTJcOhx7e8c-28" value="35" style="shape=partialRectangle;html=1;whiteSpace=wrap;connectable=0;strokeColor=inherit;overflow=hidden;fillColor=none;top=0;left=0;bottom=0;right=0;pointerEvents=1;fontSize=16;" vertex="1" parent="s1utbYugRxTJcOhx7e8c-22">
          <mxGeometry x="344" width="69" height="40" as="geometry">
            <mxRectangle width="69" height="40" as="alternateBounds" />
          </mxGeometry>
        </mxCell>
        <mxCell id="s1utbYugRxTJcOhx7e8c-29" value="i = 2" style="text;html=1;align=center;verticalAlign=middle;resizable=0;points=[];autosize=1;strokeColor=none;fillColor=none;" vertex="1" parent="1">
          <mxGeometry x="40" y="290" width="50" height="30" as="geometry" />
        </mxCell>
        <mxCell id="s1utbYugRxTJcOhx7e8c-30" value="" style="shape=table;startSize=0;container=1;collapsible=0;childLayout=tableLayout;fontSize=16;" vertex="1" parent="1">
          <mxGeometry x="160" y="370" width="413" height="40" as="geometry" />
        </mxCell>
        <mxCell id="s1utbYugRxTJcOhx7e8c-31" value="" style="shape=tableRow;horizontal=0;startSize=0;swimlaneHead=0;swimlaneBody=0;strokeColor=inherit;top=0;left=0;bottom=0;right=0;collapsible=0;dropTarget=0;fillColor=none;points=[[0,0.5],[1,0.5]];portConstraint=eastwest;fontSize=16;" vertex="1" parent="s1utbYugRxTJcOhx7e8c-30">
          <mxGeometry width="413" height="40" as="geometry" />
        </mxCell>
        <mxCell id="s1utbYugRxTJcOhx7e8c-32" value="1" style="shape=partialRectangle;html=1;whiteSpace=wrap;connectable=0;strokeColor=inherit;overflow=hidden;fillColor=none;top=0;left=0;bottom=0;right=0;pointerEvents=1;fontSize=16;" vertex="1" parent="s1utbYugRxTJcOhx7e8c-31">
          <mxGeometry width="69" height="40" as="geometry">
            <mxRectangle width="69" height="40" as="alternateBounds" />
          </mxGeometry>
        </mxCell>
        <mxCell id="s1utbYugRxTJcOhx7e8c-33" value="2" style="shape=partialRectangle;html=1;whiteSpace=wrap;connectable=0;strokeColor=inherit;overflow=hidden;fillColor=none;top=0;left=0;bottom=0;right=0;pointerEvents=1;fontSize=16;" vertex="1" parent="s1utbYugRxTJcOhx7e8c-31">
          <mxGeometry x="69" width="68" height="40" as="geometry">
            <mxRectangle width="68" height="40" as="alternateBounds" />
          </mxGeometry>
        </mxCell>
        <mxCell id="s1utbYugRxTJcOhx7e8c-34" value="7" style="shape=partialRectangle;html=1;whiteSpace=wrap;connectable=0;strokeColor=inherit;overflow=hidden;fillColor=none;top=0;left=0;bottom=0;right=0;pointerEvents=1;fontSize=16;" vertex="1" parent="s1utbYugRxTJcOhx7e8c-31">
          <mxGeometry x="137" width="69" height="40" as="geometry">
            <mxRectangle width="69" height="40" as="alternateBounds" />
          </mxGeometry>
        </mxCell>
        <mxCell id="s1utbYugRxTJcOhx7e8c-35" value="13" style="shape=partialRectangle;html=1;whiteSpace=wrap;connectable=0;strokeColor=inherit;overflow=hidden;fillColor=none;top=0;left=0;bottom=0;right=0;pointerEvents=1;fontSize=16;" vertex="1" parent="s1utbYugRxTJcOhx7e8c-31">
          <mxGeometry x="206" width="69" height="40" as="geometry">
            <mxRectangle width="69" height="40" as="alternateBounds" />
          </mxGeometry>
        </mxCell>
        <mxCell id="s1utbYugRxTJcOhx7e8c-36" value="22" style="shape=partialRectangle;html=1;whiteSpace=wrap;connectable=0;strokeColor=inherit;overflow=hidden;fillColor=none;top=0;left=0;bottom=0;right=0;pointerEvents=1;fontSize=16;" vertex="1" parent="s1utbYugRxTJcOhx7e8c-31">
          <mxGeometry x="275" width="69" height="40" as="geometry">
            <mxRectangle width="69" height="40" as="alternateBounds" />
          </mxGeometry>
        </mxCell>
        <mxCell id="s1utbYugRxTJcOhx7e8c-37" value="35" style="shape=partialRectangle;html=1;whiteSpace=wrap;connectable=0;strokeColor=inherit;overflow=hidden;fillColor=none;top=0;left=0;bottom=0;right=0;pointerEvents=1;fontSize=16;" vertex="1" parent="s1utbYugRxTJcOhx7e8c-31">
          <mxGeometry x="344" width="69" height="40" as="geometry">
            <mxRectangle width="69" height="40" as="alternateBounds" />
          </mxGeometry>
        </mxCell>
        <mxCell id="s1utbYugRxTJcOhx7e8c-38" value="RESULTADO" style="text;html=1;align=center;verticalAlign=middle;resizable=0;points=[];autosize=1;strokeColor=none;fillColor=none;" vertex="1" parent="1">
          <mxGeometry x="40" y="370" width="100" height="30" as="geometry" />
        </mxCell>
        <mxCell id="s1utbYugRxTJcOhx7e8c-48" value="OK" style="text;html=1;align=center;verticalAlign=middle;resizable=0;points=[];autosize=1;strokeColor=none;fillColor=none;" vertex="1" parent="1">
          <mxGeometry x="615" y="100" width="40" height="30" as="geometry" />
        </mxCell>
        <mxCell id="s1utbYugRxTJcOhx7e8c-50" value="TROCA" style="text;html=1;align=center;verticalAlign=middle;resizable=0;points=[];autosize=1;strokeColor=none;fillColor=none;" vertex="1" parent="1">
          <mxGeometry x="610" y="290" width="70" height="30" as="geometry" />
        </mxCell>
        <mxCell id="s1utbYugRxTJcOhx7e8c-51" value="TROCA" style="text;html=1;align=center;verticalAlign=middle;resizable=0;points=[];autosize=1;strokeColor=none;fillColor=none;" vertex="1" parent="1">
          <mxGeometry x="610" y="200" width="70" height="30" as="geometry" />
        </mxCell>
        <mxCell id="s1utbYugRxTJcOhx7e8c-61" style="edgeStyle=orthogonalEdgeStyle;rounded=0;orthogonalLoop=1;jettySize=auto;html=1;endArrow=none;startFill=1;startArrow=classic;" edge="1" parent="1">
          <mxGeometry relative="1" as="geometry">
            <mxPoint x="180" y="180" as="targetPoint" />
            <mxPoint x="180" y="200" as="sourcePoint" />
            <Array as="points">
              <mxPoint x="180" y="200" />
              <mxPoint x="180" y="180" />
            </Array>
          </mxGeometry>
        </mxCell>
        <mxCell id="s1utbYugRxTJcOhx7e8c-62" value="" style="endArrow=classic;html=1;rounded=0;entryX=0.08;entryY=-0.05;entryDx=0;entryDy=0;entryPerimeter=0;" edge="1" parent="1">
          <mxGeometry width="50" height="50" relative="1" as="geometry">
            <mxPoint x="180" y="180" as="sourcePoint" />
            <mxPoint x="248" y="200" as="targetPoint" />
            <Array as="points">
              <mxPoint x="248" y="180" />
            </Array>
          </mxGeometry>
        </mxCell>
        <mxCell id="s1utbYugRxTJcOhx7e8c-100" style="edgeStyle=orthogonalEdgeStyle;rounded=0;orthogonalLoop=1;jettySize=auto;html=1;endArrow=none;startFill=0;startArrow=none;" edge="1" parent="1">
          <mxGeometry relative="1" as="geometry">
            <mxPoint x="190" y="80" as="targetPoint" />
            <mxPoint x="190" y="100" as="sourcePoint" />
            <Array as="points">
              <mxPoint x="190" y="100" />
              <mxPoint x="190" y="80" />
            </Array>
          </mxGeometry>
        </mxCell>
        <mxCell id="s1utbYugRxTJcOhx7e8c-101" value="" style="endArrow=classic;html=1;rounded=0;entryX=0.08;entryY=-0.05;entryDx=0;entryDy=0;entryPerimeter=0;" edge="1" parent="1">
          <mxGeometry width="50" height="50" relative="1" as="geometry">
            <mxPoint x="190" y="80" as="sourcePoint" />
            <mxPoint x="258" y="100" as="targetPoint" />
            <Array as="points">
              <mxPoint x="258" y="80" />
            </Array>
          </mxGeometry>
        </mxCell>
        <mxCell id="s1utbYugRxTJcOhx7e8c-102" value="OK" style="text;html=1;align=center;verticalAlign=middle;resizable=0;points=[];autosize=1;strokeColor=none;fillColor=none;" vertex="1" parent="1">
          <mxGeometry x="200" y="48" width="40" height="30" as="geometry" />
        </mxCell>
        <mxCell id="s1utbYugRxTJcOhx7e8c-103" style="edgeStyle=orthogonalEdgeStyle;rounded=0;orthogonalLoop=1;jettySize=auto;html=1;endArrow=none;startFill=1;startArrow=classic;endFill=1;" edge="1" parent="1">
          <mxGeometry relative="1" as="geometry">
            <mxPoint x="266.5" y="180" as="targetPoint" />
            <mxPoint x="266.5" y="200" as="sourcePoint" />
            <Array as="points">
              <mxPoint x="266.5" y="200" />
              <mxPoint x="266.5" y="180" />
            </Array>
          </mxGeometry>
        </mxCell>
        <mxCell id="s1utbYugRxTJcOhx7e8c-104" value="" style="endArrow=classic;html=1;rounded=0;entryX=0.08;entryY=-0.05;entryDx=0;entryDy=0;entryPerimeter=0;" edge="1" parent="1">
          <mxGeometry width="50" height="50" relative="1" as="geometry">
            <mxPoint x="266.5" y="180" as="sourcePoint" />
            <mxPoint x="334.5" y="200" as="targetPoint" />
            <Array as="points">
              <mxPoint x="334.5" y="180" />
            </Array>
          </mxGeometry>
        </mxCell>
        <mxCell id="s1utbYugRxTJcOhx7e8c-105" value="TROCA" style="text;html=1;align=center;verticalAlign=middle;resizable=0;points=[];autosize=1;strokeColor=none;fillColor=none;" vertex="1" parent="1">
          <mxGeometry x="261.5" y="168" width="70" height="30" as="geometry" />
        </mxCell>
        <mxCell id="s1utbYugRxTJcOhx7e8c-205" style="edgeStyle=orthogonalEdgeStyle;rounded=0;orthogonalLoop=1;jettySize=auto;html=1;endArrow=none;startFill=1;startArrow=classic;" edge="1" parent="1">
          <mxGeometry relative="1" as="geometry">
            <mxPoint x="342.5" y="180" as="targetPoint" />
            <mxPoint x="342.5" y="200" as="sourcePoint" />
            <Array as="points">
              <mxPoint x="342.5" y="200" />
              <mxPoint x="342.5" y="180" />
            </Array>
          </mxGeometry>
        </mxCell>
        <mxCell id="s1utbYugRxTJcOhx7e8c-206" value="" style="endArrow=classic;html=1;rounded=0;entryX=0.08;entryY=-0.05;entryDx=0;entryDy=0;entryPerimeter=0;" edge="1" parent="1">
          <mxGeometry width="50" height="50" relative="1" as="geometry">
            <mxPoint x="342.5" y="180" as="sourcePoint" />
            <mxPoint x="410.5" y="200" as="targetPoint" />
            <Array as="points">
              <mxPoint x="410.5" y="180" />
            </Array>
          </mxGeometry>
        </mxCell>
        <mxCell id="s1utbYugRxTJcOhx7e8c-207" value="TROCA" style="text;html=1;align=center;verticalAlign=middle;resizable=0;points=[];autosize=1;strokeColor=none;fillColor=none;" vertex="1" parent="1">
          <mxGeometry x="341.5" y="168" width="70" height="30" as="geometry" />
        </mxCell>
        <mxCell id="s1utbYugRxTJcOhx7e8c-208" style="edgeStyle=orthogonalEdgeStyle;rounded=0;orthogonalLoop=1;jettySize=auto;html=1;endArrow=none;startFill=1;startArrow=classic;" edge="1" parent="1">
          <mxGeometry relative="1" as="geometry">
            <mxPoint x="420" y="180" as="targetPoint" />
            <mxPoint x="420" y="200" as="sourcePoint" />
            <Array as="points">
              <mxPoint x="420" y="200" />
              <mxPoint x="420" y="180" />
            </Array>
          </mxGeometry>
        </mxCell>
        <mxCell id="s1utbYugRxTJcOhx7e8c-209" value="" style="endArrow=classic;html=1;rounded=0;entryX=0.75;entryY=-0.007;entryDx=0;entryDy=0;entryPerimeter=0;" edge="1" parent="1">
          <mxGeometry width="50" height="50" relative="1" as="geometry">
            <mxPoint x="420" y="180" as="sourcePoint" />
            <mxPoint x="466.25" y="199.71999999999997" as="targetPoint" />
            <Array as="points">
              <mxPoint x="466.5" y="180" />
            </Array>
          </mxGeometry>
        </mxCell>
        <mxCell id="s1utbYugRxTJcOhx7e8c-210" value="TROCA" style="text;html=1;align=center;verticalAlign=middle;resizable=0;points=[];autosize=1;strokeColor=none;fillColor=none;" vertex="1" parent="1">
          <mxGeometry x="406.5" y="168" width="70" height="30" as="geometry" />
        </mxCell>
        <mxCell id="s1utbYugRxTJcOhx7e8c-214" value="TROCA" style="text;html=1;align=center;verticalAlign=middle;resizable=0;points=[];autosize=1;strokeColor=none;fillColor=none;" vertex="1" parent="1">
          <mxGeometry x="180" y="150" width="70" height="30" as="geometry" />
        </mxCell>
        <mxCell id="s1utbYugRxTJcOhx7e8c-216" style="edgeStyle=orthogonalEdgeStyle;rounded=0;orthogonalLoop=1;jettySize=auto;html=1;endArrow=none;startFill=1;startArrow=classic;" edge="1" parent="1">
          <mxGeometry relative="1" as="geometry">
            <mxPoint x="185" y="270" as="targetPoint" />
            <mxPoint x="185" y="290" as="sourcePoint" />
            <Array as="points">
              <mxPoint x="185" y="290" />
              <mxPoint x="185" y="270" />
            </Array>
          </mxGeometry>
        </mxCell>
        <mxCell id="s1utbYugRxTJcOhx7e8c-217" value="" style="endArrow=classic;html=1;rounded=0;entryX=0.08;entryY=-0.05;entryDx=0;entryDy=0;entryPerimeter=0;" edge="1" parent="1">
          <mxGeometry width="50" height="50" relative="1" as="geometry">
            <mxPoint x="185" y="270" as="sourcePoint" />
            <mxPoint x="253" y="290" as="targetPoint" />
            <Array as="points">
              <mxPoint x="253" y="270" />
            </Array>
          </mxGeometry>
        </mxCell>
        <mxCell id="s1utbYugRxTJcOhx7e8c-218" value="TROCA" style="text;html=1;align=center;verticalAlign=middle;resizable=0;points=[];autosize=1;strokeColor=none;fillColor=none;" vertex="1" parent="1">
          <mxGeometry x="185" y="240" width="70" height="30" as="geometry" />
        </mxCell>
        <mxCell id="s1utbYugRxTJcOhx7e8c-222" style="edgeStyle=orthogonalEdgeStyle;rounded=0;orthogonalLoop=1;jettySize=auto;html=1;endArrow=none;startFill=1;startArrow=classic;" edge="1" parent="1">
          <mxGeometry relative="1" as="geometry">
            <mxPoint x="331.5" y="270" as="targetPoint" />
            <mxPoint x="331.5" y="290" as="sourcePoint" />
            <Array as="points">
              <mxPoint x="331.5" y="290" />
              <mxPoint x="331.5" y="270" />
            </Array>
          </mxGeometry>
        </mxCell>
        <mxCell id="s1utbYugRxTJcOhx7e8c-223" value="" style="endArrow=classic;html=1;rounded=0;entryX=0.08;entryY=-0.05;entryDx=0;entryDy=0;entryPerimeter=0;" edge="1" parent="1">
          <mxGeometry width="50" height="50" relative="1" as="geometry">
            <mxPoint x="331.5" y="270" as="sourcePoint" />
            <mxPoint x="399.5" y="290" as="targetPoint" />
            <Array as="points">
              <mxPoint x="399.5" y="270" />
            </Array>
          </mxGeometry>
        </mxCell>
        <mxCell id="s1utbYugRxTJcOhx7e8c-224" value="TROCA" style="text;html=1;align=center;verticalAlign=middle;resizable=0;points=[];autosize=1;strokeColor=none;fillColor=none;" vertex="1" parent="1">
          <mxGeometry x="331.5" y="240" width="70" height="30" as="geometry" />
        </mxCell>
      </root>
    </mxGraphModel>
  </diagram>
</mxfile>
